<?xml version='1.0' encoding='utf-8'?>
<svg xmlns="http://www.w3.org/2000/svg" width="77.83132530mm" height="178.27764706mm" viewBox="0 0 77.83132530 178.27764706"><title>M/L Taper Reduced Neck Length | Size 11 | AP reference</title><desc>Vector tracing of supplied PNG; original measurements and overlay/reference lines retained. Transparent. Calibrated independently from source X and Y ruler; no additional 20% enlargement. Raster-derived, not manufacturer CAD. Reference views may contain superimposed standard/extended offset lines. Source crop origin: (76, 64)</desc><g id="reference-view" transform="scale(0.240963855422 0.241568627451)" fill="#009900" fill-rule="evenodd"><path d="M87,2 L89,2 L89,5 L87,5Z M14,9 L16,9 L16,10 L18,10 L18,11 L19,11 L19,12 L20,12 L20,13 L21,13 L21,14 L22,14 L22,15 L23,15 L23,16 L24,16 L24,17 L25,17 L25,18 L26,18 L26,19 L28,19 L28,21 L27,21 L27,22 L26,22 L26,21 L25,21 L25,20 L24,20 L24,19 L23,19 L23,18 L22,18 L22,17 L21,17 L21,16 L20,16 L20,15 L18,15 L18,14 L17,14 L17,13 L16,13 L16,12 L15,12 L15,11 L14,11Z M34,9 L37,9 L37,10 L38,10 L38,11 L39,11 L39,12 L40,12 L40,13 L41,13 L41,14 L43,14 L43,15 L44,15 L44,16 L45,16 L45,17 L46,17 L46,18 L47,18 L47,19 L48,19 L48,20 L49,20 L49,21 L48,21 L48,22 L47,22 L47,21 L46,21 L46,20 L45,20 L45,19 L44,19 L44,18 L43,18 L43,17 L41,17 L41,16 L40,16 L40,15 L39,15 L39,14 L38,14 L38,13 L37,13 L37,12 L36,12 L36,11 L34,11Z M87,11 L89,11 L89,17 L88,17 L88,18 L87,18Z M56,22 L58,22 L58,23 L60,23 L60,25 L59,25 L59,24 L55,24 L55,25 L54,25 L54,26 L53,26 L53,29 L52,29 L52,24 L54,24 L54,23 L56,23Z M33,23 L38,23 L38,24 L39,24 L39,26 L38,26 L38,25 L37,25 L37,24 L34,24 L34,25 L33,25 L33,26 L32,26 L32,29 L33,29 L33,30 L34,30 L34,31 L32,31 L32,30 L31,30 L31,24 L33,24Z M87,23 L88,23 L88,24 L89,24 L89,25 L95,25 L95,26 L96,26 L96,27 L97,27 L97,28 L99,28 L99,29 L100,29 L100,30 L101,30 L101,31 L102,31 L102,32 L104,32 L104,33 L105,33 L105,34 L106,34 L106,35 L114,35 L114,36 L115,36 L115,35 L119,35 L119,36 L130,36 L130,38 L111,38 L111,39 L112,39 L112,40 L114,40 L114,41 L115,41 L115,42 L116,42 L116,43 L117,43 L117,44 L119,44 L119,45 L151,45 L151,47 L147,47 L147,48 L146,48 L146,47 L122,47 L122,48 L124,48 L124,49 L125,49 L125,50 L126,50 L126,51 L127,51 L127,52 L129,52 L129,53 L130,53 L130,54 L131,54 L131,55 L151,55 L151,57 L135,57 L135,58 L136,58 L136,59 L137,59 L137,60 L138,60 L138,61 L139,61 L139,63 L140,63 L140,64 L164,64 L164,65 L165,65 L165,67 L144,67 L144,68 L145,68 L145,69 L147,69 L147,70 L148,70 L148,71 L150,71 L150,72 L151,72 L151,73 L153,73 L153,74 L155,74 L155,75 L156,75 L156,76 L158,76 L158,77 L159,77 L159,78 L161,78 L161,79 L162,79 L162,80 L164,80 L164,81 L166,81 L166,82 L167,82 L167,83 L169,83 L169,84 L170,84 L170,85 L172,85 L172,86 L173,86 L173,87 L175,87 L175,88 L177,88 L177,89 L179,89 L179,90 L181,90 L181,91 L183,91 L183,92 L185,92 L185,93 L187,93 L187,94 L189,94 L189,95 L191,95 L191,96 L193,96 L193,97 L196,97 L196,98 L199,98 L199,99 L201,99 L201,100 L205,100 L205,101 L209,101 L209,102 L212,102 L212,103 L217,103 L217,104 L222,104 L222,105 L231,105 L231,106 L255,106 L255,105 L256,105 L256,103 L257,103 L257,102 L260,102 L260,101 L261,101 L261,102 L264,102 L264,103 L265,103 L265,104 L263,104 L263,103 L258,103 L258,104 L257,104 L257,105 L256,105 L256,110 L257,110 L257,111 L258,111 L258,112 L256,112 L256,111 L249,111 L249,112 L246,112 L246,115 L242,115 L242,116 L235,116 L235,127 L234,127 L234,134 L233,134 L233,141 L232,141 L232,147 L235,147 L235,148 L242,148 L242,149 L244,149 L244,148 L245,148 L245,147 L246,147 L246,141 L247,141 L247,135 L248,135 L248,133 L249,133 L249,132 L261,132 L261,114 L260,114 L260,121 L258,121 L258,112 L263,112 L263,111 L264,111 L264,110 L265,110 L265,104 L266,104 L266,106 L270,106 L270,107 L271,107 L271,108 L272,108 L272,110 L273,110 L273,115 L274,115 L274,119 L275,119 L275,124 L276,124 L276,129 L277,129 L277,134 L278,134 L278,138 L279,138 L279,143 L280,143 L280,148 L281,148 L281,153 L282,153 L282,158 L283,158 L283,163 L284,163 L284,167 L285,167 L285,172 L286,172 L286,177 L287,177 L287,182 L288,182 L288,186 L289,186 L289,191 L290,191 L290,193 L313,193 L313,195 L290,195 L290,196 L291,196 L291,201 L292,201 L292,206 L293,206 L293,210 L294,210 L294,215 L295,215 L295,220 L296,220 L296,225 L297,225 L297,229 L298,229 L298,234 L299,234 L299,239 L300,239 L300,244 L301,244 L301,249 L302,249 L302,252 L305,252 L305,253 L307,253 L307,254 L302,254 L302,255 L300,255 L300,256 L299,256 L299,261 L298,261 L298,255 L299,255 L299,254 L300,254 L300,250 L299,250 L299,244 L298,244 L298,240 L297,240 L297,235 L296,235 L296,230 L295,230 L295,225 L294,225 L294,221 L293,221 L293,216 L292,216 L292,211 L291,211 L291,206 L290,206 L290,201 L289,201 L289,197 L288,197 L288,195 L286,195 L286,193 L288,193 L288,192 L287,192 L287,187 L286,187 L286,182 L285,182 L285,178 L284,178 L284,173 L283,173 L283,168 L282,168 L282,163 L281,163 L281,159 L280,159 L280,154 L279,154 L279,149 L278,149 L278,144 L277,144 L277,139 L276,139 L276,135 L275,135 L275,130 L274,130 L274,125 L273,125 L273,120 L272,120 L272,116 L271,116 L271,111 L270,111 L270,109 L269,109 L269,108 L267,108 L267,109 L266,109 L266,111 L265,111 L265,112 L264,112 L264,113 L263,113 L263,133 L262,133 L262,134 L260,134 L260,159 L259,159 L259,160 L258,160 L258,159 L257,159 L257,156 L258,156 L258,155 L257,155 L257,154 L258,154 L258,150 L257,150 L257,149 L258,149 L258,135 L249,135 L249,142 L248,142 L248,148 L247,148 L247,150 L245,150 L245,151 L239,151 L239,150 L233,150 L233,149 L231,149 L231,147 L230,147 L230,138 L231,138 L231,131 L232,131 L232,124 L233,124 L233,117 L232,117 L232,118 L231,118 L231,119 L230,119 L230,120 L229,120 L229,121 L228,121 L228,122 L227,122 L227,123 L226,123 L226,124 L225,124 L225,125 L224,125 L224,126 L223,126 L223,127 L222,127 L222,128 L221,128 L221,129 L220,129 L220,130 L219,130 L219,131 L218,131 L218,132 L217,132 L217,133 L216,133 L216,134 L215,134 L215,135 L214,135 L214,136 L213,136 L213,137 L212,137 L212,138 L211,138 L211,139 L210,139 L210,140 L209,140 L209,141 L208,141 L208,142 L207,142 L207,143 L206,143 L206,144 L205,144 L205,145 L204,145 L204,146 L203,146 L203,147 L202,147 L202,148 L201,148 L201,149 L200,149 L200,150 L199,150 L199,151 L198,151 L198,152 L199,152 L199,153 L201,153 L201,154 L202,154 L202,155 L203,155 L203,156 L204,156 L204,157 L205,157 L205,158 L206,158 L206,159 L207,159 L207,160 L208,160 L208,162 L206,162 L206,161 L205,161 L205,160 L204,160 L204,159 L203,159 L203,158 L201,158 L201,157 L200,157 L200,156 L199,156 L199,155 L198,155 L198,154 L197,154 L197,153 L196,153 L196,154 L195,154 L195,155 L194,155 L194,156 L193,156 L193,157 L192,157 L192,158 L191,158 L191,159 L190,159 L190,160 L189,160 L189,161 L188,161 L188,162 L187,162 L187,163 L186,163 L186,164 L185,164 L185,165 L184,165 L184,166 L183,166 L183,167 L182,167 L182,168 L181,168 L181,169 L180,169 L180,170 L179,170 L179,171 L178,171 L178,172 L177,172 L177,173 L175,173 L175,174 L174,174 L174,176 L173,176 L173,177 L172,177 L172,178 L171,178 L171,179 L170,179 L170,180 L169,180 L169,181 L167,181 L167,183 L166,183 L166,184 L165,184 L165,185 L164,185 L164,186 L163,186 L163,187 L164,187 L164,186 L166,186 L166,185 L167,185 L167,184 L169,184 L169,183 L171,183 L171,182 L172,182 L172,181 L174,181 L174,180 L176,180 L176,179 L178,179 L178,178 L180,178 L180,180 L179,180 L179,181 L177,181 L177,182 L175,182 L175,183 L174,183 L174,184 L172,184 L172,185 L170,185 L170,186 L168,186 L168,187 L167,187 L167,188 L165,188 L165,189 L163,189 L163,190 L162,190 L162,191 L159,191 L159,190 L153,190 L153,191 L152,191 L152,192 L151,192 L151,197 L152,197 L152,198 L153,198 L153,199 L151,199 L151,210 L150,210 L150,227 L149,227 L149,245 L148,245 L148,260 L147,260 L147,277 L146,277 L146,284 L145,284 L145,285 L123,285 L123,282 L144,282 L144,268 L145,268 L145,252 L146,252 L146,236 L147,236 L147,219 L148,219 L148,203 L149,203 L149,202 L147,202 L147,203 L142,203 L142,202 L141,202 L141,200 L140,200 L140,199 L141,199 L141,197 L142,197 L142,196 L143,196 L143,195 L139,195 L139,194 L138,194 L138,193 L149,193 L149,186 L150,186 L150,183 L149,183 L149,181 L148,181 L148,180 L147,180 L147,179 L146,179 L146,177 L145,177 L145,176 L144,176 L144,175 L143,175 L143,173 L142,173 L142,172 L141,172 L141,171 L140,171 L140,170 L139,170 L139,169 L138,169 L138,168 L137,168 L137,166 L136,166 L136,165 L135,165 L135,164 L134,164 L134,163 L133,163 L133,162 L132,162 L132,161 L131,161 L131,160 L130,160 L130,159 L129,159 L129,158 L128,158 L128,157 L127,157 L127,156 L126,156 L126,155 L125,155 L125,154 L124,154 L124,153 L122,153 L122,152 L120,152 L120,174 L119,174 L119,197 L118,197 L118,198 L119,198 L119,199 L118,199 L118,220 L117,220 L117,245 L116,245 L116,255 L115,255 L115,256 L93,256 L93,254 L114,254 L114,242 L115,242 L115,218 L116,218 L116,196 L117,196 L117,195 L90,195 L90,192 L115,192 L115,193 L116,193 L116,192 L117,192 L117,172 L118,172 L118,148 L117,148 L117,147 L116,147 L116,145 L115,145 L115,144 L114,144 L114,143 L113,143 L113,141 L112,141 L112,140 L111,140 L111,139 L110,139 L110,137 L109,137 L109,136 L108,136 L108,135 L107,135 L107,134 L106,134 L106,132 L105,132 L105,131 L104,131 L104,130 L103,130 L103,129 L102,129 L102,128 L101,128 L101,127 L100,127 L100,125 L99,125 L99,124 L98,124 L98,123 L97,123 L97,122 L96,122 L96,121 L95,121 L95,120 L94,120 L94,118 L93,118 L93,117 L92,117 L92,116 L91,116 L91,115 L90,115 L90,114 L89,114 L89,113 L88,113 L88,112 L87,112 L87,111 L86,111 L86,110 L85,110 L85,109 L84,109 L84,108 L82,108 L82,107 L80,107 L80,106 L79,106 L79,105 L77,105 L77,104 L76,104 L76,103 L75,103 L75,102 L74,102 L74,101 L73,101 L73,100 L72,100 L72,99 L71,99 L71,98 L70,98 L70,97 L69,97 L69,96 L68,96 L68,95 L67,95 L67,94 L66,94 L66,93 L65,93 L65,92 L64,92 L64,91 L63,91 L63,90 L62,90 L62,89 L61,89 L61,88 L60,88 L60,87 L59,87 L59,86 L58,86 L58,85 L56,85 L56,84 L55,84 L55,83 L54,83 L54,82 L53,82 L53,81 L52,81 L52,80 L51,80 L51,79 L50,79 L50,78 L49,78 L49,77 L48,77 L48,76 L47,76 L47,75 L46,75 L46,74 L45,74 L45,73 L44,73 L44,72 L43,72 L43,71 L42,71 L42,70 L41,70 L41,69 L40,69 L40,68 L39,68 L39,67 L38,67 L38,66 L37,66 L37,61 L38,61 L38,60 L39,60 L39,59 L40,59 L40,58 L41,58 L41,56 L42,56 L42,55 L43,55 L43,54 L44,54 L44,53 L45,53 L45,52 L46,52 L46,51 L47,51 L47,49 L48,49 L48,48 L49,48 L49,47 L50,47 L50,46 L51,46 L51,45 L52,45 L52,44 L51,44 L51,43 L50,43 L50,42 L49,42 L49,41 L48,41 L48,40 L47,40 L47,39 L48,39 L48,38 L49,38 L49,35 L48,35 L48,34 L47,34 L47,33 L44,33 L44,34 L43,34 L43,35 L42,35 L42,38 L43,38 L43,39 L44,39 L44,40 L47,40 L47,41 L43,41 L43,40 L42,40 L42,39 L41,39 L41,34 L40,34 L40,32 L47,32 L47,33 L49,33 L49,35 L50,35 L50,38 L49,38 L49,39 L50,39 L50,40 L52,40 L52,41 L53,41 L53,42 L54,42 L54,41 L55,41 L55,40 L56,40 L56,39 L57,39 L57,38 L58,38 L58,37 L59,37 L59,35 L60,35 L60,32 L63,32 L63,31 L64,31 L64,30 L65,30 L65,29 L66,29 L66,28 L61,28 L61,29 L60,29 L60,30 L59,30 L59,28 L60,28 L60,25 L61,25 L61,26 L68,26 L68,25 L74,25 L74,26 L75,26 L75,27 L77,27 L77,28 L78,28 L78,26 L84,26 L84,27 L85,27 L85,28 L78,28 L78,29 L79,29 L79,30 L80,30 L80,31 L82,31 L82,32 L84,32 L84,31 L85,31 L85,29 L86,29 L86,28 L87,28Z M126,23 L127,23 L127,25 L126,25 L126,31 L127,31 L127,33 L126,33 L126,32 L125,32 L125,30 L124,30 L124,25 L125,25 L125,24 L126,24Z M146,23 L148,23 L148,24 L149,24 L149,25 L150,25 L150,30 L149,30 L149,31 L145,31 L145,29 L144,29 L144,25 L145,25 L145,24 L146,24Z M155,23 L159,23 L159,25 L156,25 L156,26 L159,26 L159,27 L160,27 L160,29 L159,29 L159,30 L158,30 L158,31 L155,31 L155,30 L154,30 L154,24 L155,24Z M164,23 L165,23 L165,24 L166,24 L166,26 L167,26 L167,30 L166,30 L166,32 L165,32 L165,33 L164,33 L164,30 L165,30 L165,26 L164,26Z M139,24 L142,24 L142,31 L140,31 L140,26 L138,26 L138,25 L139,25Z M134,25 L135,25 L135,27 L137,27 L137,29 L135,29 L135,31 L133,31 L133,29 L131,29 L131,27 L133,27 L133,26 L134,26Z M39,26 L40,26 L40,29 L39,29Z M101,26 L119,26 L119,27 L120,27 L120,28 L101,28Z M172,26 L184,26 L184,27 L185,27 L185,28 L172,28Z M188,26 L192,26 L192,27 L193,27 L193,28 L192,28 L192,29 L191,29 L191,28 L189,28 L189,29 L188,29Z M196,26 L200,26 L200,27 L201,27 L201,28 L200,28 L200,29 L196,29Z M204,26 L228,26 L228,27 L229,27 L229,28 L228,28 L228,29 L204,29Z M232,26 L236,26 L236,27 L237,27 L237,28 L236,28 L236,29 L232,29 L232,28 L231,28 L231,27 L232,27Z M240,26 L244,26 L244,29 L240,29 L240,28 L239,28 L239,27 L240,27Z M248,26 L271,26 L271,27 L272,27 L272,29 L248,29 L248,28 L247,28 L247,27 L248,27Z M276,26 L277,26 L277,27 L278,27 L278,26 L279,26 L279,27 L280,27 L280,29 L276,29 L276,28 L275,28 L275,27 L276,27Z M284,26 L286,26 L286,27 L288,27 L288,29 L284,29 L284,28 L283,28 L283,27 L284,27Z M293,26 L300,26 L300,27 L316,27 L316,29 L292,29 L292,28 L291,28 L291,27 L293,27Z M319,27 L322,27 L322,29 L319,29Z M38,29 L39,29 L39,31 L37,31 L37,30 L38,30Z M53,29 L54,29 L54,30 L53,30Z M146,29 L148,29 L148,25 L146,25Z M151,29 L153,29 L153,31 L151,31Z M155,29 L158,29 L158,28 L157,28 L157,27 L156,27 L156,28 L155,28Z M54,30 L59,30 L59,31 L54,31Z M34,31 L37,31 L37,32 L34,32Z M66,31 L68,31 L68,32 L69,32 L69,33 L67,33 L67,32 L64,32 L64,33 L63,33 L63,38 L64,38 L64,39 L62,39 L62,37 L60,37 L60,38 L59,38 L59,40 L58,40 L58,41 L57,41 L57,42 L56,42 L56,43 L60,43 L60,44 L61,44 L61,45 L59,45 L59,44 L56,44 L56,45 L55,45 L55,49 L56,49 L56,50 L60,50 L60,49 L61,49 L61,45 L62,45 L62,50 L63,50 L63,49 L65,49 L65,48 L70,48 L70,47 L71,47 L71,45 L72,45 L72,43 L71,43 L71,42 L70,42 L70,41 L69,41 L69,40 L64,40 L64,39 L67,39 L67,38 L69,38 L69,33 L70,33 L70,35 L81,35 L81,34 L80,34 L80,33 L79,33 L79,32 L78,32 L78,31 L77,31 L77,30 L75,30 L75,29 L74,29 L74,28 L68,28 L68,29 L67,29 L67,30 L66,30Z M171,33 L173,33 L173,34 L172,34 L172,41 L173,41 L173,42 L171,42 L171,41 L170,41 L170,38 L169,38 L169,37 L170,37 L170,34 L171,34Z M184,33 L189,33 L189,35 L188,35 L188,37 L187,37 L187,40 L186,40 L186,41 L185,41 L185,40 L184,40 L184,39 L185,39 L185,37 L186,37 L186,35 L184,35Z M193,33 L195,33 L195,34 L196,34 L196,37 L197,37 L197,38 L196,38 L196,41 L195,41 L195,42 L193,42 L193,41 L194,41 L194,34 L193,34Z M85,34 L86,34 L86,35 L89,35 L89,38 L91,38 L91,39 L92,39 L92,40 L93,40 L93,41 L94,41 L94,42 L96,42 L96,43 L97,43 L97,44 L98,44 L98,45 L103,45 L103,46 L104,46 L104,47 L102,47 L102,48 L103,48 L103,49 L104,49 L104,50 L106,50 L106,51 L107,51 L107,52 L108,52 L108,53 L109,53 L109,54 L111,54 L111,55 L112,55 L112,56 L113,56 L113,57 L114,57 L114,55 L119,55 L119,57 L114,57 L114,58 L115,58 L115,59 L117,59 L117,61 L118,61 L118,62 L119,62 L119,63 L120,63 L120,64 L122,64 L122,65 L123,65 L123,66 L122,66 L122,67 L124,67 L124,68 L125,68 L125,69 L126,69 L126,70 L128,70 L128,71 L129,71 L129,72 L131,72 L131,73 L132,73 L132,74 L134,74 L134,75 L135,75 L135,76 L137,76 L137,77 L138,77 L138,78 L140,78 L140,79 L141,79 L141,80 L143,80 L143,81 L144,81 L144,82 L146,82 L146,83 L147,83 L147,84 L149,84 L149,85 L151,85 L151,86 L152,86 L152,87 L154,87 L154,88 L156,88 L156,89 L158,89 L158,90 L159,90 L159,91 L161,91 L161,92 L163,92 L163,93 L165,93 L165,94 L167,94 L167,95 L170,95 L170,96 L172,96 L172,97 L175,97 L175,98 L177,98 L177,99 L180,99 L180,100 L184,100 L184,101 L187,101 L187,102 L191,102 L191,103 L196,103 L196,104 L202,104 L202,105 L209,105 L209,106 L214,106 L214,105 L211,105 L211,104 L207,104 L207,103 L203,103 L203,102 L200,102 L200,101 L197,101 L197,100 L195,100 L195,99 L192,99 L192,98 L190,98 L190,97 L188,97 L188,96 L186,96 L186,95 L183,95 L183,94 L181,94 L181,93 L180,93 L180,92 L178,92 L178,91 L176,91 L176,90 L174,90 L174,89 L172,89 L172,88 L171,88 L171,87 L169,87 L169,86 L168,86 L168,85 L166,85 L166,84 L164,84 L164,83 L163,83 L163,82 L161,82 L161,81 L160,81 L160,80 L158,80 L158,79 L157,79 L157,78 L155,78 L155,77 L153,77 L153,76 L152,76 L152,75 L150,75 L150,74 L148,74 L148,73 L147,73 L147,72 L146,72 L146,71 L144,71 L144,70 L143,70 L143,69 L142,69 L142,68 L141,68 L141,67 L136,67 L136,64 L137,64 L137,62 L136,62 L136,61 L135,61 L135,60 L133,60 L133,59 L132,59 L132,58 L131,58 L131,57 L123,57 L123,55 L127,55 L127,54 L126,54 L126,53 L125,53 L125,52 L124,52 L124,51 L122,51 L122,50 L121,50 L121,49 L120,49 L120,48 L119,48 L119,47 L117,47 L117,46 L116,46 L116,45 L115,45 L115,44 L114,44 L114,43 L112,43 L112,42 L111,42 L111,41 L110,41 L110,40 L109,40 L109,39 L107,39 L107,38 L102,38 L102,36 L103,36 L103,35 L102,35 L102,34 L101,34 L101,33 L100,33 L100,32 L99,32 L99,31 L97,31 L97,30 L96,30 L96,29 L95,29 L95,28 L89,28 L89,30 L88,30 L88,31 L86,31 L86,32 L85,32Z M94,35 L98,35 L98,38 L93,38 L93,36 L94,36Z M179,35 L181,35 L181,37 L183,37 L183,38 L182,38 L182,39 L181,39 L181,40 L180,40 L180,41 L179,41 L179,39 L177,39 L177,37 L179,37Z M134,36 L139,36 L139,38 L134,38Z M143,36 L148,36 L148,38 L143,38Z M152,36 L167,36 L167,37 L166,37 L166,38 L152,38Z M199,36 L213,36 L213,38 L199,38Z M216,36 L222,36 L222,37 L221,37 L221,38 L217,38 L217,37 L216,37Z M225,36 L230,36 L230,38 L225,38Z M234,36 L261,36 L261,38 L234,38Z M264,36 L269,36 L269,38 L264,38Z M273,36 L278,36 L278,38 L273,38Z M282,36 L308,36 L308,38 L282,38Z M312,36 L317,36 L317,38 L312,38Z M321,36 L322,36 L322,38 L321,38Z M70,39 L71,39 L71,40 L72,40 L72,41 L73,41 L73,42 L75,42 L75,41 L76,41 L76,40 L77,40 L77,39 L78,39 L78,38 L70,38Z M78,42 L82,42 L82,43 L83,43 L83,45 L82,45 L82,44 L81,44 L81,43 L78,43 L78,44 L77,44 L77,45 L76,45 L76,48 L77,48 L77,49 L78,49 L78,50 L81,50 L81,49 L82,49 L82,48 L83,48 L83,45 L87,45 L87,38 L84,38 L84,36 L82,36 L82,37 L81,37 L81,38 L80,38 L80,39 L79,39 L79,40 L78,40Z M201,42 L202,42 L202,45 L201,45 L201,50 L202,50 L202,52 L200,52 L200,50 L199,50 L199,44 L200,44 L200,43 L201,43Z M214,43 L218,43 L218,44 L219,44 L219,45 L218,45 L218,47 L219,47 L219,49 L218,49 L218,50 L216,50 L216,51 L215,51 L215,50 L213,50 L213,48 L210,48 L210,50 L208,50 L208,48 L206,48 L206,47 L208,47 L208,45 L210,45 L210,47 L214,47 L214,46 L213,46 L213,44 L214,44Z M223,43 L228,43 L228,44 L227,44 L227,46 L228,46 L228,47 L229,47 L229,48 L228,48 L228,50 L226,50 L226,51 L224,51 L224,50 L223,50 L223,49 L222,49 L222,48 L224,48 L224,49 L226,49 L226,47 L223,47Z M233,43 L234,43 L234,44 L235,44 L235,46 L236,46 L236,48 L235,48 L235,51 L234,51 L234,52 L232,52 L232,51 L233,51Z M89,45 L93,45 L93,47 L89,47 L89,49 L92,49 L92,50 L93,50 L93,52 L94,52 L94,54 L95,54 L95,55 L101,55 L101,57 L95,57 L95,58 L94,58 L94,60 L93,60 L93,61 L92,61 L92,62 L90,62 L90,63 L84,63 L84,62 L83,62 L83,61 L82,61 L82,60 L81,60 L81,58 L80,58 L80,54 L81,54 L81,51 L77,51 L77,50 L76,50 L76,49 L75,49 L75,46 L73,46 L73,47 L72,47 L72,49 L71,49 L71,50 L72,50 L72,51 L73,51 L73,52 L74,52 L74,59 L73,59 L73,60 L72,60 L72,61 L71,61 L71,62 L70,62 L70,63 L64,63 L64,62 L62,62 L62,61 L60,61 L60,65 L61,65 L61,66 L62,66 L62,67 L63,67 L63,68 L64,68 L64,69 L65,69 L65,70 L66,70 L66,71 L67,71 L67,72 L68,72 L68,73 L69,73 L69,74 L70,74 L70,75 L71,75 L71,76 L72,76 L72,77 L73,77 L73,78 L74,78 L74,79 L75,79 L75,80 L76,80 L76,81 L77,81 L77,82 L78,82 L78,83 L79,83 L79,84 L80,84 L80,85 L81,85 L81,86 L82,86 L82,87 L83,87 L83,88 L85,88 L85,89 L86,89 L86,90 L87,90 L87,91 L88,91 L88,92 L89,92 L89,93 L90,93 L90,94 L91,94 L91,95 L92,95 L92,96 L93,96 L93,97 L94,97 L94,98 L95,98 L95,99 L96,99 L96,100 L97,100 L97,101 L98,101 L98,102 L99,102 L99,103 L100,103 L100,104 L102,104 L102,105 L104,105 L104,106 L105,106 L105,107 L107,107 L107,108 L108,108 L108,109 L109,109 L109,110 L110,110 L110,111 L111,111 L111,112 L112,112 L112,113 L113,113 L113,114 L114,114 L114,116 L115,116 L115,117 L116,117 L116,118 L117,118 L117,119 L118,119 L118,120 L119,120 L119,121 L120,121 L120,103 L119,103 L119,102 L117,102 L117,101 L116,101 L116,100 L115,100 L115,99 L114,99 L114,98 L113,98 L113,97 L112,97 L112,96 L111,96 L111,95 L110,95 L110,94 L108,94 L108,93 L107,93 L107,92 L106,92 L106,91 L105,91 L105,90 L104,90 L104,89 L103,89 L103,88 L102,88 L102,86 L104,86 L104,87 L105,87 L105,88 L106,88 L106,89 L107,89 L107,90 L109,90 L109,91 L110,91 L110,92 L111,92 L111,93 L112,93 L112,94 L113,94 L113,95 L114,95 L114,96 L115,96 L115,97 L116,97 L116,98 L117,98 L117,99 L119,99 L119,100 L121,100 L121,89 L120,89 L120,87 L119,87 L119,84 L118,84 L118,83 L119,83 L119,82 L120,82 L120,83 L123,83 L123,84 L124,84 L124,85 L125,85 L125,87 L124,87 L124,88 L123,88 L123,104 L122,104 L122,125 L123,125 L123,127 L124,127 L124,128 L125,128 L125,129 L126,129 L126,130 L127,130 L127,131 L128,131 L128,133 L129,133 L129,134 L130,134 L130,135 L131,135 L131,136 L132,136 L132,138 L133,138 L133,139 L134,139 L134,140 L135,140 L135,142 L136,142 L136,143 L137,143 L137,144 L138,144 L138,146 L139,146 L139,148 L140,148 L140,149 L141,149 L141,151 L142,151 L142,152 L143,152 L143,154 L144,154 L144,156 L145,156 L145,158 L146,158 L146,160 L147,160 L147,162 L148,162 L148,164 L149,164 L149,166 L150,166 L150,168 L151,168 L151,152 L152,152 L152,137 L153,137 L153,135 L152,135 L152,133 L151,133 L151,131 L152,131 L152,130 L149,130 L149,129 L148,129 L148,128 L147,128 L147,127 L146,127 L146,126 L145,126 L145,125 L144,125 L144,124 L142,124 L142,123 L141,123 L141,122 L140,122 L140,121 L139,121 L139,120 L138,120 L138,119 L137,119 L137,118 L136,118 L136,117 L134,117 L134,116 L133,116 L133,115 L132,115 L132,114 L131,114 L131,112 L133,112 L133,113 L135,113 L135,114 L136,114 L136,115 L137,115 L137,116 L138,116 L138,117 L139,117 L139,118 L140,118 L140,119 L141,119 L141,120 L143,120 L143,121 L144,121 L144,122 L145,122 L145,123 L146,123 L146,124 L147,124 L147,125 L148,125 L148,126 L149,126 L149,127 L150,127 L150,128 L152,128 L152,130 L153,130 L153,129 L155,129 L155,130 L156,130 L156,131 L157,131 L157,134 L158,134 L158,136 L156,136 L156,135 L155,135 L155,144 L154,144 L154,161 L153,161 L153,176 L154,176 L154,179 L155,179 L155,182 L156,182 L156,185 L157,185 L157,188 L158,188 L158,187 L159,187 L159,186 L160,186 L160,185 L161,185 L161,184 L162,184 L162,183 L163,183 L163,182 L164,182 L164,181 L165,181 L165,180 L166,180 L166,179 L167,179 L167,178 L168,178 L168,177 L169,177 L169,176 L170,176 L170,175 L171,175 L171,174 L172,174 L172,173 L173,173 L173,172 L174,172 L174,171 L175,171 L175,170 L176,170 L176,169 L177,169 L177,168 L178,168 L178,167 L179,167 L179,166 L180,166 L180,165 L181,165 L181,164 L182,164 L182,163 L183,163 L183,162 L184,162 L184,160 L183,160 L183,158 L186,158 L186,159 L187,159 L187,158 L188,158 L188,157 L189,157 L189,156 L190,156 L190,155 L192,155 L192,153 L194,153 L194,150 L192,150 L192,149 L191,149 L191,148 L190,148 L190,147 L189,147 L189,146 L188,146 L188,145 L187,145 L187,144 L186,144 L186,142 L188,142 L188,143 L189,143 L189,144 L190,144 L190,145 L192,145 L192,146 L193,146 L193,147 L194,147 L194,148 L195,148 L195,149 L197,149 L197,148 L198,148 L198,147 L199,147 L199,146 L200,146 L200,145 L201,145 L201,144 L202,144 L202,143 L203,143 L203,142 L204,142 L204,141 L205,141 L205,140 L206,140 L206,139 L207,139 L207,138 L209,138 L209,136 L210,136 L210,135 L211,135 L211,134 L213,134 L213,132 L214,132 L214,131 L215,131 L215,130 L216,130 L216,129 L217,129 L217,128 L218,128 L218,127 L219,127 L219,126 L220,126 L220,125 L221,125 L221,124 L222,124 L222,123 L223,123 L223,122 L224,122 L224,121 L225,121 L225,120 L226,120 L226,119 L227,119 L227,118 L228,118 L228,117 L229,117 L229,116 L230,116 L230,115 L231,115 L231,114 L232,114 L232,113 L233,113 L233,108 L207,108 L207,107 L200,107 L200,106 L194,106 L194,105 L190,105 L190,104 L186,104 L186,103 L182,103 L182,102 L179,102 L179,101 L176,101 L176,100 L173,100 L173,99 L171,99 L171,98 L168,98 L168,97 L166,97 L166,96 L164,96 L164,95 L162,95 L162,94 L160,94 L160,93 L158,93 L158,92 L156,92 L156,91 L155,91 L155,90 L153,90 L153,89 L151,89 L151,88 L149,88 L149,87 L148,87 L148,86 L146,86 L146,85 L145,85 L145,84 L143,84 L143,83 L142,83 L142,82 L140,82 L140,81 L139,81 L139,80 L137,80 L137,79 L135,79 L135,78 L134,78 L134,77 L132,77 L132,76 L131,76 L131,75 L129,75 L129,74 L128,74 L128,73 L126,73 L126,72 L125,72 L125,71 L124,71 L124,70 L122,70 L122,69 L121,69 L121,68 L120,68 L120,67 L117,67 L117,63 L116,63 L116,62 L115,62 L115,61 L114,61 L114,60 L113,60 L113,59 L112,59 L112,58 L110,58 L110,57 L105,57 L105,55 L107,55 L107,54 L106,54 L106,53 L104,53 L104,52 L103,52 L103,51 L102,51 L102,50 L101,50 L101,49 L99,49 L99,48 L98,48 L98,47 L97,47 L97,46 L96,46 L96,45 L94,45 L94,44 L93,44 L93,43 L92,43 L92,42 L91,42 L91,41 L89,41Z M108,45 L114,45 L114,47 L108,47Z M156,45 L162,45 L162,47 L161,47 L161,48 L160,48 L160,47 L159,47 L159,48 L156,48 L156,47 L155,47 L155,46 L156,46Z M167,45 L172,45 L172,46 L173,46 L173,47 L172,47 L172,48 L170,48 L170,47 L169,47 L169,48 L167,48 L167,47 L166,47 L166,46 L167,46Z M177,45 L193,45 L193,46 L194,46 L194,47 L193,47 L193,48 L178,48 L178,47 L177,47Z M241,45 L254,45 L254,48 L240,48 L240,46 L241,46Z M259,45 L261,45 L261,46 L263,46 L263,48 L259,48 L259,47 L258,47 L258,46 L259,46Z M280,45 L281,45 L281,46 L285,46 L285,45 L286,45 L286,46 L304,46 L304,48 L277,48 L277,47 L276,47 L276,46 L280,46Z M214,46 L216,46 L216,44 L215,44 L215,45 L214,45Z M267,46 L272,46 L272,48 L268,48 L268,47 L267,47Z M308,46 L314,46 L314,48 L309,48 L309,47 L308,47Z M317,46 L322,46 L322,48 L318,48 L318,47 L317,47Z M53,47 L54,47 L54,46 L52,46 L52,48 L51,48 L51,49 L50,49 L50,50 L49,50 L49,51 L48,51 L48,52 L47,52 L47,54 L46,54 L46,55 L45,55 L45,56 L44,56 L44,57 L43,57 L43,58 L42,58 L42,59 L41,59 L41,61 L40,61 L40,62 L39,62 L39,65 L40,65 L40,66 L41,66 L41,67 L42,67 L42,68 L43,68 L43,69 L44,69 L44,70 L45,70 L45,71 L46,71 L46,72 L47,72 L47,73 L48,73 L48,74 L49,74 L49,75 L50,75 L50,76 L51,76 L51,77 L52,77 L52,78 L53,78 L53,79 L54,79 L54,80 L56,80 L56,81 L57,81 L57,82 L58,82 L58,83 L59,83 L59,84 L60,84 L60,85 L61,85 L61,86 L62,86 L62,87 L63,87 L63,88 L64,88 L64,89 L65,89 L65,90 L66,90 L66,91 L67,91 L67,92 L68,92 L68,93 L69,93 L69,94 L70,94 L70,95 L71,95 L71,96 L72,96 L72,97 L73,97 L73,98 L74,98 L74,99 L75,99 L75,100 L76,100 L76,101 L77,101 L77,102 L78,102 L78,103 L80,103 L80,104 L82,104 L82,105 L83,105 L83,106 L85,106 L85,107 L86,107 L86,108 L87,108 L87,109 L88,109 L88,110 L89,110 L89,111 L90,111 L90,112 L91,112 L91,113 L92,113 L92,114 L93,114 L93,115 L94,115 L94,116 L95,116 L95,117 L96,117 L96,118 L97,118 L97,120 L98,120 L98,121 L99,121 L99,122 L100,122 L100,123 L101,123 L101,124 L102,124 L102,125 L103,125 L103,127 L104,127 L104,128 L105,128 L105,129 L106,129 L106,130 L107,130 L107,131 L108,131 L108,132 L109,132 L109,134 L110,134 L110,135 L111,135 L111,136 L112,136 L112,138 L113,138 L113,139 L114,139 L114,140 L115,140 L115,142 L116,142 L116,143 L117,143 L117,144 L118,144 L118,145 L119,145 L119,124 L118,124 L118,123 L117,123 L117,121 L116,121 L116,120 L115,120 L115,119 L114,119 L114,118 L113,118 L113,117 L112,117 L112,115 L111,115 L111,114 L110,114 L110,113 L109,113 L109,112 L108,112 L108,111 L107,111 L107,110 L105,110 L105,109 L104,109 L104,108 L103,108 L103,107 L101,107 L101,106 L99,106 L99,105 L98,105 L98,104 L97,104 L97,103 L96,103 L96,102 L95,102 L95,101 L94,101 L94,100 L93,100 L93,99 L92,99 L92,98 L91,98 L91,97 L89,97 L89,96 L88,96 L88,95 L87,95 L87,94 L86,94 L86,93 L85,93 L85,92 L84,92 L84,91 L83,91 L83,90 L82,90 L82,89 L81,89 L81,88 L80,88 L80,87 L79,87 L79,86 L78,86 L78,85 L77,85 L77,84 L76,84 L76,83 L75,83 L75,82 L74,82 L74,81 L73,81 L73,80 L72,80 L72,79 L71,79 L71,78 L70,78 L70,77 L69,77 L69,76 L68,76 L68,75 L67,75 L67,74 L66,74 L66,73 L64,73 L64,72 L63,72 L63,71 L62,71 L62,70 L61,70 L61,69 L60,69 L60,68 L59,68 L59,67 L58,67 L58,63 L57,63 L57,62 L58,62 L58,61 L59,61 L59,59 L60,59 L60,52 L56,52 L56,51 L55,51 L55,50 L54,50 L54,48 L53,48Z M86,48 L87,48 L87,47 L84,47 L84,48 L83,48 L83,50 L84,50 L84,49 L86,49Z M214,48 L215,48 L215,49 L217,49 L217,47 L214,47Z M220,48 L221,48 L221,49 L222,49 L222,50 L219,50 L219,49 L220,49Z M240,51 L241,51 L241,55 L240,55 L240,58 L241,58 L241,62 L240,62 L240,61 L239,61 L239,60 L238,60 L238,54 L239,54 L239,52 L240,52Z M246,52 L250,52 L250,53 L251,53 L251,59 L250,59 L250,60 L247,60 L247,59 L246,59 L246,58 L245,58 L245,53 L246,53Z M255,52 L257,52 L257,53 L258,53 L258,60 L257,60 L257,62 L255,62 L255,60 L256,60 L256,54 L255,54Z M154,55 L160,55 L160,57 L154,57Z M163,55 L168,55 L168,57 L163,57Z M172,55 L199,55 L199,56 L200,56 L200,57 L172,57Z M204,55 L208,55 L208,56 L209,56 L209,57 L203,57 L203,56 L204,56Z M212,55 L217,55 L217,56 L218,56 L218,57 L212,57Z M221,55 L235,55 L235,57 L221,57Z M259,55 L272,55 L272,57 L259,57Z M275,55 L279,55 L279,56 L280,56 L280,57 L275,57Z M283,55 L287,55 L287,56 L288,56 L288,57 L283,57Z M291,55 L315,55 L315,57 L306,57 L306,58 L305,58 L305,57 L304,57 L304,58 L303,58 L303,57 L291,57Z M319,55 L322,55 L322,57 L319,57Z M63,56 L64,56 L64,58 L65,58 L65,59 L69,59 L69,58 L70,58 L70,53 L67,53 L67,52 L66,52 L66,53 L64,53 L64,55 L63,55Z M247,57 L249,57 L249,54 L247,54Z M85,58 L86,58 L86,59 L89,59 L89,58 L91,58 L91,53 L89,53 L89,52 L86,52 L86,53 L85,53Z M73,61 L75,61 L75,62 L79,62 L79,61 L80,61 L80,62 L82,62 L82,63 L83,63 L83,64 L84,64 L84,70 L85,70 L85,71 L87,71 L87,72 L88,72 L88,73 L89,73 L89,74 L90,74 L90,75 L91,75 L91,76 L92,76 L92,77 L93,77 L93,79 L91,79 L91,78 L90,78 L90,77 L89,77 L89,76 L88,76 L88,75 L86,75 L86,74 L85,74 L85,73 L84,73 L84,72 L83,72 L83,71 L77,71 L77,70 L76,70 L76,69 L75,69 L75,67 L74,67 L74,66 L75,66 L75,64 L74,64 L74,63 L73,63Z M95,61 L96,61 L96,62 L97,62 L97,63 L98,63 L98,62 L104,62 L104,63 L105,63 L105,64 L113,64 L113,66 L112,66 L112,67 L105,67 L105,70 L106,70 L106,71 L107,71 L107,72 L108,72 L108,73 L110,73 L110,74 L111,74 L111,75 L112,75 L112,76 L113,76 L113,77 L114,77 L114,78 L115,78 L115,79 L116,79 L116,80 L115,80 L115,81 L114,81 L114,80 L113,80 L113,79 L112,79 L112,78 L110,78 L110,77 L109,77 L109,76 L108,76 L108,75 L107,75 L107,74 L106,74 L106,73 L105,73 L105,72 L104,72 L104,71 L99,71 L99,70 L98,70 L98,69 L97,69 L97,67 L96,67 L96,64 L95,64 L95,63 L94,63 L94,62 L95,62Z M262,62 L264,62 L264,63 L263,63 L263,65 L262,65 L262,68 L263,68 L263,70 L264,70 L264,72 L263,72 L263,71 L262,71 L262,70 L261,70 L261,64 L262,64Z M273,62 L277,62 L277,66 L278,66 L278,68 L277,68 L277,69 L276,69 L276,70 L273,70 L273,69 L272,69 L272,67 L274,67 L274,65 L272,65 L272,63 L273,63Z M283,62 L287,62 L287,64 L286,64 L286,65 L287,65 L287,69 L286,69 L286,70 L283,70 L283,69 L282,69 L282,63 L283,63Z M291,62 L293,62 L293,63 L294,63 L294,70 L293,70 L293,72 L292,72 L292,69 L293,69 L293,65 L292,65 L292,63 L291,63Z M127,64 L132,64 L132,66 L131,66 L131,67 L127,67Z M170,64 L174,64 L174,65 L175,65 L175,66 L174,66 L174,67 L169,67 L169,65 L170,65Z M181,64 L182,64 L182,65 L184,65 L184,67 L179,67 L179,66 L178,66 L178,65 L181,65Z M200,64 L201,64 L201,65 L218,65 L218,66 L217,66 L217,67 L188,67 L188,65 L200,65Z M221,65 L227,65 L227,66 L226,66 L226,67 L221,67Z M230,65 L236,65 L236,67 L231,67 L231,66 L230,66Z M240,65 L255,65 L255,67 L240,67Z M274,65 L275,65 L275,64 L274,64Z M299,65 L313,65 L313,67 L300,67 L300,66 L299,66Z M316,65 L321,65 L321,67 L316,67Z M268,66 L271,66 L271,67 L268,67Z M76,67 L77,67 L77,69 L79,69 L79,70 L80,70 L80,69 L82,69 L82,68 L83,68 L83,65 L82,65 L82,64 L81,64 L81,63 L78,63 L78,64 L77,64 L77,65 L76,65Z M97,67 L98,67 L98,68 L99,68 L99,69 L104,69 L104,64 L103,64 L103,63 L99,63 L99,64 L98,64 L98,66 L97,66Z M274,68 L276,68 L276,67 L274,67Z M279,68 L280,68 L280,70 L279,70Z M283,68 L285,68 L285,66 L283,66Z M96,80 L97,80 L97,81 L98,81 L98,82 L99,82 L99,83 L100,83 L100,84 L99,84 L99,85 L98,85 L98,84 L97,84 L97,83 L96,83 L96,82 L95,82 L95,81 L96,81Z M125,88 L127,88 L127,89 L128,89 L128,90 L129,90 L129,91 L130,91 L130,92 L131,92 L131,93 L132,93 L132,94 L133,94 L133,95 L135,95 L135,96 L136,96 L136,97 L137,97 L137,98 L138,98 L138,99 L139,99 L139,100 L140,100 L140,101 L141,101 L141,102 L143,102 L143,103 L144,103 L144,104 L145,104 L145,105 L146,105 L146,106 L147,106 L147,107 L146,107 L146,108 L145,108 L145,107 L144,107 L144,106 L142,106 L142,105 L141,105 L141,104 L140,104 L140,103 L139,103 L139,102 L138,102 L138,101 L137,101 L137,100 L136,100 L136,99 L134,99 L134,98 L133,98 L133,97 L132,97 L132,96 L131,96 L131,95 L130,95 L130,94 L129,94 L129,93 L128,93 L128,92 L127,92 L127,91 L125,91Z M125,106 L127,106 L127,107 L128,107 L128,108 L129,108 L129,110 L127,110 L127,109 L125,109Z M149,109 L151,109 L151,110 L152,110 L152,111 L153,111 L153,114 L152,114 L152,113 L151,113 L151,112 L149,112Z M243,109 L244,109 L244,110 L245,110 L245,109 L255,109 L255,108 L235,108 L235,110 L243,110Z M321,112 L322,112 L322,118 L321,118Z M237,113 L244,113 L244,112 L237,112Z M156,115 L158,115 L158,116 L159,116 L159,117 L160,117 L160,118 L161,118 L161,119 L162,119 L162,120 L163,120 L163,121 L164,121 L164,122 L165,122 L165,123 L167,123 L167,124 L168,124 L168,125 L169,125 L169,126 L170,126 L170,127 L171,127 L171,128 L172,128 L172,129 L173,129 L173,130 L174,130 L174,131 L175,131 L175,132 L177,132 L177,135 L175,135 L175,134 L174,134 L174,133 L173,133 L173,132 L172,132 L172,131 L171,131 L171,130 L170,130 L170,129 L169,129 L169,128 L167,128 L167,127 L166,127 L166,126 L165,126 L165,125 L164,125 L164,124 L163,124 L163,123 L162,123 L162,122 L161,122 L161,121 L160,121 L160,120 L158,120 L158,119 L157,119 L157,118 L156,118Z M258,124 L260,124 L260,129 L258,129Z M180,136 L181,136 L181,137 L182,137 L182,138 L183,138 L183,139 L184,139 L184,140 L183,140 L183,141 L182,141 L182,140 L181,140 L181,139 L180,139 L180,138 L179,138 L179,137 L180,137Z M160,138 L163,138 L163,139 L164,139 L164,140 L165,140 L165,141 L167,141 L167,142 L168,142 L168,143 L169,143 L169,144 L170,144 L170,145 L171,145 L171,146 L172,146 L172,147 L173,147 L173,148 L174,148 L174,149 L175,149 L175,150 L176,150 L176,151 L178,151 L178,152 L179,152 L179,153 L180,153 L180,154 L181,154 L181,156 L179,156 L179,155 L177,155 L177,154 L176,154 L176,153 L175,153 L175,152 L174,152 L174,151 L173,151 L173,150 L172,150 L172,149 L171,149 L171,148 L170,148 L170,147 L169,147 L169,146 L168,146 L168,145 L166,145 L166,144 L165,144 L165,143 L164,143 L164,142 L163,142 L163,141 L162,141 L162,140 L161,140 L161,139 L160,139Z M121,149 L123,149 L123,150 L124,150 L124,151 L125,151 L125,152 L126,152 L126,153 L127,153 L127,154 L128,154 L128,155 L129,155 L129,156 L130,156 L130,157 L131,157 L131,158 L132,158 L132,159 L133,159 L133,160 L134,160 L134,161 L135,161 L135,162 L136,162 L136,163 L137,163 L137,164 L138,164 L138,165 L139,165 L139,166 L140,166 L140,168 L141,168 L141,169 L142,169 L142,170 L143,170 L143,171 L144,171 L144,172 L145,172 L145,174 L146,174 L146,175 L147,175 L147,176 L148,176 L148,178 L149,178 L149,179 L150,179 L150,171 L149,171 L149,169 L148,169 L148,167 L147,167 L147,165 L146,165 L146,162 L145,162 L145,160 L144,160 L144,159 L143,159 L143,157 L142,157 L142,155 L141,155 L141,153 L140,153 L140,152 L139,152 L139,150 L138,150 L138,148 L137,148 L137,147 L136,147 L136,145 L135,145 L135,144 L134,144 L134,143 L133,143 L133,141 L132,141 L132,140 L131,140 L131,139 L130,139 L130,137 L129,137 L129,136 L128,136 L128,135 L127,135 L127,134 L126,134 L126,132 L125,132 L125,131 L124,131 L124,130 L123,130 L123,129 L122,129 L122,128 L121,128Z M210,163 L212,163 L212,164 L213,164 L213,165 L214,165 L214,166 L215,166 L215,167 L214,167 L214,168 L213,168 L213,167 L212,167 L212,166 L211,166 L211,165 L210,165Z M258,163 L259,163 L259,164 L260,164 L260,165 L259,165 L259,169 L258,169 L258,168 L257,168 L257,164 L258,164Z M189,164 L192,164 L192,165 L194,165 L194,166 L195,166 L195,167 L196,167 L196,168 L197,168 L197,169 L198,169 L198,170 L199,170 L199,171 L201,171 L201,172 L202,172 L202,173 L203,173 L203,174 L204,174 L204,175 L205,175 L205,176 L206,176 L206,177 L207,177 L207,178 L209,178 L209,179 L210,179 L210,182 L209,182 L209,181 L207,181 L207,180 L206,180 L206,179 L205,179 L205,178 L204,178 L204,177 L203,177 L203,176 L202,176 L202,175 L200,175 L200,174 L199,174 L199,173 L198,173 L198,172 L197,172 L197,171 L196,171 L196,170 L195,170 L195,169 L193,169 L193,168 L192,168 L192,167 L191,167 L191,166 L190,166 L190,165 L189,165Z M217,170 L220,170 L220,171 L221,171 L221,172 L222,172 L222,173 L223,173 L223,174 L225,174 L225,175 L226,175 L226,176 L227,176 L227,177 L228,177 L228,178 L229,178 L229,179 L230,179 L230,180 L231,180 L231,181 L233,181 L233,182 L234,182 L234,183 L235,183 L235,184 L236,184 L236,185 L237,185 L237,186 L238,186 L238,187 L239,187 L239,188 L238,188 L238,189 L237,189 L237,188 L236,188 L236,187 L235,187 L235,186 L234,186 L234,185 L232,185 L232,184 L231,184 L231,183 L230,183 L230,182 L229,182 L229,181 L228,181 L228,180 L227,180 L227,179 L226,179 L226,178 L224,178 L224,177 L223,177 L223,176 L222,176 L222,175 L221,175 L221,174 L220,174 L220,173 L219,173 L219,172 L218,172 L218,171 L217,171Z M258,172 L259,172 L259,182 L260,182 L260,184 L259,184 L259,192 L260,192 L260,193 L264,193 L264,195 L259,195 L259,199 L258,199 L258,198 L257,198 L257,195 L237,195 L237,193 L241,193 L241,190 L242,190 L242,191 L244,191 L244,192 L245,192 L245,193 L257,193 L257,173 L258,173Z M152,183 L153,183 L153,180 L152,180Z M213,183 L214,183 L214,184 L215,184 L215,185 L216,185 L216,186 L217,186 L217,187 L216,187 L216,188 L215,188 L215,187 L214,187 L214,186 L213,186 L213,185 L212,185 L212,184 L213,184Z M153,185 L154,185 L154,183 L153,183Z M152,189 L153,189 L153,187 L152,187Z M219,189 L221,189 L221,190 L222,190 L222,191 L223,191 L223,192 L225,192 L225,193 L226,193 L226,194 L227,194 L227,195 L228,195 L228,193 L233,193 L233,195 L228,195 L228,196 L229,196 L229,197 L230,197 L230,198 L231,198 L231,199 L233,199 L233,200 L234,200 L234,201 L235,201 L235,202 L236,202 L236,203 L237,203 L237,204 L238,204 L238,205 L239,205 L239,208 L238,208 L238,207 L237,207 L237,206 L236,206 L236,205 L235,205 L235,204 L234,204 L234,203 L233,203 L233,202 L231,202 L231,201 L230,201 L230,200 L229,200 L229,199 L228,199 L228,198 L227,198 L227,197 L226,197 L226,196 L224,196 L224,195 L219,195 L219,193 L221,193 L221,192 L220,192 L220,191 L219,191Z M5,192 L19,192 L19,194 L5,194Z M23,192 L27,192 L27,193 L28,193 L28,194 L22,194 L22,193 L23,193Z M32,192 L36,192 L36,193 L37,193 L37,194 L31,194 L31,193 L32,193Z M41,192 L68,192 L68,194 L67,194 L67,195 L55,195 L55,194 L54,194 L54,195 L50,195 L50,194 L48,194 L48,195 L45,195 L45,194 L42,194 L42,195 L41,195 L41,194 L40,194 L40,193 L41,193Z M72,192 L76,192 L76,193 L77,193 L77,194 L76,194 L76,195 L72,195Z M81,192 L85,192 L85,193 L86,193 L86,194 L85,194 L85,195 L81,195Z M162,192 L165,192 L165,193 L166,193 L166,195 L167,195 L167,197 L166,197 L166,198 L164,198 L164,199 L162,199 L162,200 L161,200 L161,201 L160,201 L160,203 L161,203 L161,202 L163,202 L163,201 L165,201 L165,200 L167,200 L167,199 L169,199 L169,201 L168,201 L168,202 L166,202 L166,203 L164,203 L164,204 L162,204 L162,206 L164,206 L164,205 L166,205 L166,204 L168,204 L168,203 L171,203 L171,205 L169,205 L169,206 L167,206 L167,207 L165,207 L165,208 L164,208 L164,210 L165,210 L165,209 L167,209 L167,208 L169,208 L169,207 L171,207 L171,206 L173,206 L173,205 L175,205 L175,204 L177,204 L177,203 L179,203 L179,202 L182,202 L182,204 L180,204 L180,205 L178,205 L178,206 L176,206 L176,207 L174,207 L174,208 L172,208 L172,209 L171,209 L171,210 L169,210 L169,211 L167,211 L167,212 L166,212 L166,214 L167,214 L167,213 L169,213 L169,212 L171,212 L171,211 L173,211 L173,210 L175,210 L175,212 L174,212 L174,213 L172,213 L172,214 L170,214 L170,215 L168,215 L168,217 L170,217 L170,216 L172,216 L172,215 L174,215 L174,214 L177,214 L177,216 L175,216 L175,217 L173,217 L173,218 L171,218 L171,219 L169,219 L169,220 L170,220 L170,221 L171,221 L171,220 L173,220 L173,219 L175,219 L175,218 L179,218 L179,219 L178,219 L178,220 L176,220 L176,221 L174,221 L174,222 L172,222 L172,223 L171,223 L171,224 L172,224 L172,225 L173,225 L173,224 L175,224 L175,223 L177,223 L177,222 L179,222 L179,221 L180,221 L180,222 L181,222 L181,223 L180,223 L180,224 L178,224 L178,225 L176,225 L176,226 L174,226 L174,227 L173,227 L173,228 L176,228 L176,227 L178,227 L178,226 L180,226 L180,225 L182,225 L182,224 L184,224 L184,223 L186,223 L186,222 L188,222 L188,221 L191,221 L191,220 L193,220 L193,219 L195,219 L195,218 L197,218 L197,217 L200,217 L200,219 L198,219 L198,220 L196,220 L196,221 L194,221 L194,222 L192,222 L192,223 L190,223 L190,224 L188,224 L188,225 L185,225 L185,226 L183,226 L183,227 L181,227 L181,228 L179,228 L179,229 L177,229 L177,230 L175,230 L175,232 L177,232 L177,231 L179,231 L179,230 L182,230 L182,229 L184,229 L184,231 L183,231 L183,232 L181,232 L181,233 L179,233 L179,234 L176,234 L176,235 L177,235 L177,236 L179,236 L179,235 L181,235 L181,234 L183,234 L183,233 L186,233 L186,235 L184,235 L184,236 L182,236 L182,237 L180,237 L180,238 L178,238 L178,240 L180,240 L180,239 L182,239 L182,238 L184,238 L184,237 L188,237 L188,238 L187,238 L187,239 L186,239 L186,240 L183,240 L183,241 L181,241 L181,242 L180,242 L180,244 L181,244 L181,243 L183,243 L183,242 L186,242 L186,241 L189,241 L189,243 L187,243 L187,244 L185,244 L185,245 L182,245 L182,246 L181,246 L181,247 L185,247 L185,246 L187,246 L187,245 L189,245 L189,244 L192,244 L192,243 L194,243 L194,242 L196,242 L196,241 L200,241 L200,243 L198,243 L198,244 L195,244 L195,245 L193,245 L193,246 L191,246 L191,247 L188,247 L188,248 L186,248 L186,249 L184,249 L184,250 L183,250 L183,251 L186,251 L186,250 L188,250 L188,249 L191,249 L191,248 L192,248 L192,249 L193,249 L193,250 L192,250 L192,251 L190,251 L190,252 L187,252 L187,253 L185,253 L185,255 L187,255 L187,254 L190,254 L190,253 L192,253 L192,252 L194,252 L194,255 L191,255 L191,256 L188,256 L188,257 L186,257 L186,259 L188,259 L188,258 L191,258 L191,257 L193,257 L193,256 L196,256 L196,258 L195,258 L195,259 L192,259 L192,260 L190,260 L190,261 L188,261 L188,263 L190,263 L190,262 L192,262 L192,261 L195,261 L195,260 L197,260 L197,262 L196,262 L196,263 L194,263 L194,264 L191,264 L191,265 L189,265 L189,266 L190,266 L190,267 L191,267 L191,266 L193,266 L193,265 L196,265 L196,264 L199,264 L199,263 L201,263 L201,262 L204,262 L204,261 L206,261 L206,260 L209,260 L209,259 L212,259 L212,258 L214,258 L214,257 L217,257 L217,259 L216,259 L216,260 L213,260 L213,261 L210,261 L210,262 L208,262 L208,263 L205,263 L205,264 L202,264 L202,265 L200,265 L200,266 L197,266 L197,267 L195,267 L195,268 L192,268 L192,269 L191,269 L191,271 L192,271 L192,270 L195,270 L195,269 L197,269 L197,268 L200,268 L200,270 L199,270 L199,271 L196,271 L196,272 L193,272 L193,273 L192,273 L192,274 L196,274 L196,273 L198,273 L198,272 L202,272 L202,274 L200,274 L200,275 L197,275 L197,276 L194,276 L194,278 L197,278 L197,277 L200,277 L200,276 L203,276 L203,278 L201,278 L201,279 L198,279 L198,280 L196,280 L196,281 L195,281 L195,282 L198,282 L198,281 L201,281 L201,280 L205,280 L205,281 L204,281 L204,282 L202,282 L202,283 L200,283 L200,284 L197,284 L197,286 L199,286 L199,285 L202,285 L202,284 L205,284 L205,283 L208,283 L208,282 L211,282 L211,281 L215,281 L215,283 L213,283 L213,284 L210,284 L210,285 L207,285 L207,286 L204,286 L204,287 L201,287 L201,288 L198,288 L198,290 L200,290 L200,289 L204,289 L204,288 L207,288 L207,290 L205,290 L205,291 L202,291 L202,292 L199,292 L199,294 L202,294 L202,293 L205,293 L205,292 L209,292 L209,293 L208,293 L208,294 L206,294 L206,295 L203,295 L203,296 L200,296 L200,298 L203,298 L203,297 L206,297 L206,296 L210,296 L210,298 L208,298 L208,299 L205,299 L205,300 L202,300 L202,302 L204,302 L204,301 L207,301 L207,300 L211,300 L211,302 L209,302 L209,303 L206,303 L206,304 L203,304 L203,306 L205,306 L205,305 L208,305 L208,304 L211,304 L211,303 L215,303 L215,302 L218,302 L218,301 L222,301 L222,300 L226,300 L226,299 L231,299 L231,301 L227,301 L227,302 L224,302 L224,303 L221,303 L221,304 L217,304 L217,305 L214,305 L214,306 L210,306 L210,307 L207,307 L207,308 L204,308 L204,311 L205,311 L205,315 L206,315 L206,318 L207,318 L207,322 L208,322 L208,326 L209,326 L209,330 L210,330 L210,334 L211,334 L211,338 L212,338 L212,343 L213,343 L213,347 L214,347 L214,352 L215,352 L215,357 L216,357 L216,363 L217,363 L217,369 L218,369 L218,375 L219,375 L219,377 L223,377 L223,378 L224,378 L224,379 L225,379 L225,381 L226,381 L226,380 L257,380 L257,367 L259,367 L259,380 L270,380 L270,381 L271,381 L271,380 L273,380 L273,381 L275,381 L275,380 L276,380 L276,381 L278,381 L278,380 L279,380 L279,381 L280,381 L280,380 L281,380 L281,381 L284,381 L284,380 L285,380 L285,381 L291,381 L291,380 L292,380 L292,379 L293,379 L293,378 L294,378 L294,377 L295,377 L295,359 L296,359 L296,341 L297,341 L297,323 L298,323 L298,306 L299,306 L299,285 L300,285 L300,267 L301,267 L301,263 L299,263 L299,261 L300,261 L300,262 L301,262 L301,263 L306,263 L306,262 L307,262 L307,261 L308,261 L308,255 L307,255 L307,254 L308,254 L308,255 L309,255 L309,258 L310,258 L310,259 L309,259 L309,262 L308,262 L308,263 L307,263 L307,264 L303,264 L303,269 L302,269 L302,288 L301,288 L301,305 L300,305 L300,324 L299,324 L299,343 L298,343 L298,360 L297,360 L297,377 L300,377 L300,378 L301,378 L301,379 L298,379 L298,378 L296,378 L296,379 L293,379 L293,381 L292,381 L292,384 L293,384 L293,386 L294,386 L294,387 L300,387 L300,386 L301,386 L301,385 L302,385 L302,381 L301,381 L301,379 L302,379 L302,380 L303,380 L303,385 L302,385 L302,387 L301,387 L301,388 L299,388 L299,389 L295,389 L295,388 L293,388 L293,394 L292,394 L292,411 L291,411 L291,429 L290,429 L290,447 L289,447 L289,466 L288,466 L288,483 L287,483 L287,500 L286,500 L286,519 L285,519 L285,537 L284,537 L284,554 L283,554 L283,573 L282,573 L282,590 L281,590 L281,605 L282,605 L282,604 L286,604 L286,603 L290,603 L290,602 L294,602 L294,604 L307,604 L307,606 L305,606 L305,607 L303,607 L303,606 L295,606 L295,607 L294,607 L294,609 L290,609 L290,608 L287,608 L287,607 L283,607 L283,606 L281,606 L281,608 L280,608 L280,626 L279,626 L279,644 L278,644 L278,663 L277,663 L277,676 L276,676 L276,680 L275,680 L275,683 L274,683 L274,684 L273,684 L273,686 L272,686 L272,687 L271,687 L271,688 L270,688 L270,689 L268,689 L268,690 L267,690 L267,691 L265,691 L265,692 L264,692 L264,693 L263,693 L263,692 L262,692 L262,690 L261,690 L261,689 L260,689 L260,688 L255,688 L255,687 L256,687 L256,679 L258,679 L258,687 L261,687 L261,688 L262,688 L262,689 L263,689 L263,690 L264,690 L264,689 L266,689 L266,688 L268,688 L268,687 L269,687 L269,686 L270,686 L270,685 L271,685 L271,683 L272,683 L272,682 L273,682 L273,680 L274,680 L274,676 L275,676 L275,661 L276,661 L276,643 L277,643 L277,625 L278,625 L278,606 L279,606 L279,589 L280,589 L280,571 L281,571 L281,553 L282,553 L282,535 L283,535 L283,517 L284,517 L284,499 L285,499 L285,482 L286,482 L286,464 L287,464 L287,446 L288,446 L288,427 L289,427 L289,410 L290,410 L290,391 L291,391 L291,383 L259,383 L259,393 L258,393 L258,394 L257,394 L257,383 L226,383 L226,384 L225,384 L225,386 L224,386 L224,380 L223,380 L223,379 L222,379 L222,378 L218,378 L218,379 L216,379 L216,372 L215,372 L215,366 L214,366 L214,360 L213,360 L213,355 L212,355 L212,350 L211,350 L211,345 L210,345 L210,340 L209,340 L209,336 L208,336 L208,332 L207,332 L207,328 L206,328 L206,324 L205,324 L205,320 L204,320 L204,317 L203,317 L203,313 L202,313 L202,309 L201,309 L201,306 L200,306 L200,302 L199,302 L199,299 L198,299 L198,296 L197,296 L197,293 L196,293 L196,290 L195,290 L195,287 L194,287 L194,284 L193,284 L193,281 L192,281 L192,278 L191,278 L191,276 L190,276 L190,273 L189,273 L189,270 L188,270 L188,267 L187,267 L187,265 L186,265 L186,262 L185,262 L185,260 L184,260 L184,257 L183,257 L183,255 L182,255 L182,252 L181,252 L181,250 L180,250 L180,247 L179,247 L179,245 L178,245 L178,243 L177,243 L177,241 L176,241 L176,238 L175,238 L175,236 L174,236 L174,234 L173,234 L173,232 L172,232 L172,229 L171,229 L171,227 L170,227 L170,225 L169,225 L169,223 L168,223 L168,221 L167,221 L167,219 L166,219 L166,217 L165,217 L165,215 L164,215 L164,213 L163,213 L163,211 L162,211 L162,210 L161,210 L161,208 L160,208 L160,206 L159,206 L159,204 L158,204 L158,202 L157,202 L157,200 L153,200 L153,199 L158,199 L158,198 L160,198 L160,196 L161,196 L161,197 L163,197 L163,196 L165,196 L165,195 L161,195 L161,194 L160,194 L160,193 L162,193Z M121,193 L126,193 L126,194 L125,194 L125,195 L121,195Z M130,193 L135,193 L135,194 L134,194 L134,195 L130,195Z M170,193 L215,193 L215,195 L170,195Z M268,193 L273,193 L273,195 L268,195Z M277,193 L282,193 L282,195 L277,195Z M317,193 L322,193 L322,195 L317,195Z M248,196 L249,196 L249,197 L250,197 L250,198 L252,198 L252,199 L253,199 L253,200 L254,200 L254,201 L255,201 L255,202 L256,202 L256,203 L257,203 L257,202 L259,202 L259,207 L257,207 L257,206 L256,206 L256,205 L255,205 L255,204 L254,204 L254,203 L253,203 L253,202 L252,202 L252,201 L251,201 L251,200 L250,200 L250,199 L248,199Z M148,199 L149,199 L149,196 L147,196 L147,197 L145,197 L145,198 L143,198 L143,201 L146,201 L146,200 L148,200Z M242,209 L244,209 L244,210 L245,210 L245,211 L246,211 L246,213 L244,213 L244,212 L243,212 L243,211 L242,211Z M257,211 L259,211 L259,238 L258,238 L258,237 L257,237 L257,224 L256,224 L256,223 L255,223 L255,222 L254,222 L254,221 L253,221 L253,220 L252,220 L252,219 L251,219 L251,218 L250,218 L250,217 L248,217 L248,215 L251,215 L251,216 L252,216 L252,217 L253,217 L253,218 L254,218 L254,219 L255,219 L255,220 L256,220 L256,221 L257,221Z M165,227 L166,227 L166,228 L168,228 L168,229 L169,229 L169,231 L166,231 L166,232 L164,232 L164,233 L161,233 L161,234 L159,234 L159,232 L160,232 L160,231 L162,231 L162,230 L165,230Z M165,234 L171,234 L171,235 L172,235 L172,240 L171,240 L171,241 L169,241 L169,242 L167,242 L167,243 L163,243 L163,242 L162,242 L162,240 L161,240 L161,237 L162,237 L162,236 L163,236 L163,235 L165,235Z M169,238 L170,238 L170,236 L167,236 L167,237 L165,237 L165,238 L164,238 L164,239 L163,239 L163,240 L164,240 L164,241 L165,241 L165,240 L168,240 L168,239 L169,239Z M257,241 L259,241 L259,247 L258,247 L258,246 L257,246Z M70,248 L75,248 L75,252 L73,252 L73,250 L71,250 L71,252 L72,252 L72,253 L74,253 L74,254 L75,254 L75,255 L76,255 L76,257 L75,257 L75,259 L74,259 L74,260 L70,260 L70,259 L69,259 L69,258 L68,258 L68,256 L69,256 L69,255 L70,255 L70,257 L71,257 L71,258 L73,258 L73,255 L71,255 L71,254 L69,254 L69,252 L68,252 L68,250 L69,250 L69,249 L70,249Z M85,248 L87,248 L87,259 L86,259 L86,260 L85,260 L85,259 L84,259 L84,260 L81,260 L81,258 L80,258 L80,253 L79,253 L79,258 L80,258 L80,260 L77,260 L77,253 L76,253 L76,250 L77,250 L77,249 L79,249 L79,251 L80,251 L80,252 L81,252 L81,251 L84,251 L84,250 L85,250Z M257,250 L259,250 L259,277 L258,277 L258,276 L257,276Z M82,257 L83,257 L83,258 L84,258 L84,257 L85,257 L85,254 L84,254 L84,253 L83,253 L83,254 L82,254Z M88,257 L90,257 L90,260 L88,260Z M180,264 L184,264 L184,265 L185,265 L185,270 L184,270 L184,271 L185,271 L185,272 L187,272 L187,274 L188,274 L188,277 L187,277 L187,278 L185,278 L185,279 L183,279 L183,280 L178,280 L178,279 L177,279 L177,277 L176,277 L176,276 L177,276 L177,274 L178,274 L178,273 L179,273 L179,272 L182,272 L182,271 L180,271 L180,270 L179,270 L179,269 L177,269 L177,268 L176,268 L176,269 L177,269 L177,273 L176,273 L176,272 L175,272 L175,270 L174,270 L174,267 L173,267 L173,266 L174,266 L174,265 L176,265 L176,266 L179,266 L179,267 L180,267 L180,268 L181,268 L181,269 L182,269 L182,268 L183,268 L183,266 L180,266Z M184,276 L185,276 L185,274 L181,274 L181,275 L179,275 L179,277 L180,277 L180,278 L182,278 L182,277 L184,277Z M102,277 L108,277 L108,279 L104,279 L104,282 L108,282 L108,284 L104,284 L104,287 L109,287 L109,286 L110,286 L110,282 L109,282 L109,280 L111,280 L111,282 L112,282 L112,281 L113,281 L113,280 L115,280 L115,279 L116,279 L116,278 L118,278 L118,280 L119,280 L119,282 L118,282 L118,287 L119,287 L119,289 L116,289 L116,282 L115,282 L115,281 L114,281 L114,283 L113,283 L113,285 L114,285 L114,287 L115,287 L115,289 L113,289 L113,287 L112,287 L112,286 L111,286 L111,288 L110,288 L110,289 L109,289 L109,288 L108,288 L108,289 L102,289Z M257,280 L259,280 L259,285 L257,285Z M120,287 L122,287 L122,288 L121,288 L121,289 L120,289Z M257,289 L259,289 L259,316 L257,316Z M193,302 L196,302 L196,303 L197,303 L197,305 L198,305 L198,307 L197,307 L197,308 L196,308 L196,310 L198,310 L198,311 L199,311 L199,315 L198,315 L198,317 L196,317 L196,318 L190,318 L190,317 L189,317 L189,316 L188,316 L188,312 L189,312 L189,311 L190,311 L190,310 L188,310 L188,309 L187,309 L187,307 L186,307 L186,305 L187,305 L187,303 L190,303 L190,305 L188,305 L188,307 L189,307 L189,308 L191,308 L191,305 L193,305 L193,306 L195,306 L195,304 L193,304Z M192,310 L194,310 L194,309 L192,309Z M196,314 L197,314 L197,312 L193,312 L193,313 L190,313 L190,315 L196,315Z M257,319 L259,319 L259,324 L257,324Z M257,328 L259,328 L259,355 L257,355Z M257,358 L259,358 L259,363 L258,363 L258,364 L257,364Z M215,379 L216,379 L216,380 L215,380Z M214,380 L215,380 L215,385 L216,385 L216,386 L217,386 L217,387 L223,387 L223,386 L224,386 L224,387 L223,387 L223,389 L224,389 L224,397 L225,397 L225,405 L226,405 L226,419 L227,419 L227,436 L228,436 L228,456 L229,456 L229,476 L230,476 L230,497 L231,497 L231,516 L232,516 L232,538 L233,538 L233,558 L234,558 L234,559 L233,559 L233,560 L234,560 L234,579 L235,579 L235,600 L236,600 L236,620 L237,620 L237,645 L238,645 L238,664 L239,664 L239,678 L240,678 L240,681 L241,681 L241,683 L242,683 L242,684 L243,684 L243,685 L244,685 L244,686 L245,686 L245,687 L246,687 L246,688 L247,688 L247,689 L250,689 L250,690 L253,690 L253,688 L255,688 L255,689 L254,689 L254,691 L253,691 L253,695 L252,695 L252,693 L251,693 L251,692 L248,692 L248,691 L246,691 L246,690 L245,690 L245,689 L243,689 L243,688 L242,688 L242,686 L241,686 L241,685 L240,685 L240,683 L239,683 L239,682 L238,682 L238,679 L237,679 L237,674 L236,674 L236,652 L235,652 L235,630 L234,630 L234,611 L233,611 L233,606 L231,606 L231,607 L227,607 L227,608 L223,608 L223,609 L219,609 L219,606 L199,606 L199,604 L219,604 L219,602 L220,602 L220,601 L221,601 L221,602 L225,602 L225,603 L229,603 L229,604 L233,604 L233,590 L232,590 L232,569 L231,569 L231,549 L230,549 L230,528 L229,528 L229,507 L228,507 L228,487 L227,487 L227,468 L226,468 L226,447 L225,447 L225,427 L224,427 L224,413 L223,413 L223,401 L222,401 L222,393 L221,393 L221,389 L218,389 L218,388 L216,388 L216,387 L215,387 L215,386 L214,386Z M257,397 L259,397 L259,402 L257,402Z M257,406 L259,406 L259,432 L256,432 L256,420 L257,420 L257,413 L256,413 L256,412 L257,412Z M257,436 L258,436 L258,437 L259,437 L259,439 L258,439 L258,441 L256,441 L256,437 L257,437Z M256,445 L258,445 L258,449 L259,449 L259,451 L258,451 L258,472 L257,472 L257,471 L256,471Z M257,475 L258,475 L258,481 L257,481 L257,480 L256,480 L256,476 L257,476Z M256,484 L258,484 L258,510 L256,510Z M256,514 L258,514 L258,519 L256,519Z M256,523 L258,523 L258,550 L256,550Z M256,553 L258,553 L258,559 L257,559 L257,558 L256,558Z M256,562 L258,562 L258,589 L256,589Z M256,592 L258,592 L258,597 L256,597Z M256,601 L258,601 L258,628 L256,628Z M256,631 L258,631 L258,636 L256,636Z M256,640 L258,640 L258,667 L256,667Z M256,670 L258,670 L258,675 L256,675Z M262,693 L263,693 L263,696 L262,696Z M253,695 L254,695 L254,696 L255,696 L255,697 L261,697 L261,696 L262,696 L262,697 L261,697 L261,698 L259,698 L259,699 L258,699 L258,701 L257,701 L257,702 L256,702 L256,700 L255,700 L255,699 L256,699 L256,698 L254,698 L254,697 L253,697Z M256,704 L258,704 L258,707 L256,707Z M256,709 L257,709 L257,710 L258,710 L258,719 L256,719 L256,717 L255,717 L255,712 L256,712 L256,711 L255,711 L255,710 L256,710Z" /></g></svg>