<?xml version='1.0' encoding='utf-8'?>
<svg xmlns="http://www.w3.org/2000/svg" width="16.86746988mm" height="177.31137255mm" viewBox="0 0 16.86746988 177.31137255"><title>M/L Taper Reduced Neck Length | Size 11 | Lateral reference</title><desc>Vector tracing of supplied PNG; original measurements and overlay/reference lines retained. Transparent. Calibrated independently from source X and Y ruler; no additional 20% enlargement. Raster-derived, not manufacturer CAD. Reference views may contain superimposed standard/extended offset lines. Source crop origin: (398, 68)</desc><g id="reference-view" transform="scale(0.240963855422 0.241568627451)" fill="#009900" fill-rule="evenodd"><path d="M30,4 L31,4 L31,18 L34,18 L34,19 L36,19 L36,21 L35,21 L35,20 L33,20 L33,19 L31,19 L31,20 L29,20 L29,21 L28,21 L28,22 L27,22 L27,64 L26,64 L26,63 L12,63 L12,64 L10,64 L10,65 L9,65 L9,66 L8,66 L8,67 L7,67 L7,68 L6,68 L6,69 L5,69 L5,71 L4,71 L4,73 L3,73 L3,77 L2,77 L2,80 L4,80 L4,88 L5,88 L5,91 L6,91 L6,93 L7,93 L7,96 L8,96 L8,98 L9,98 L9,103 L8,103 L8,104 L7,104 L7,105 L8,105 L8,104 L13,104 L13,103 L22,103 L22,102 L29,102 L29,93 L31,93 L31,102 L38,102 L38,103 L47,103 L47,104 L51,104 L51,105 L54,105 L54,104 L52,104 L52,103 L51,103 L51,102 L50,102 L50,101 L51,101 L51,98 L52,98 L52,96 L53,96 L53,93 L54,93 L54,91 L55,91 L55,88 L56,88 L56,83 L57,83 L57,81 L56,81 L56,80 L58,80 L58,76 L57,76 L57,72 L56,72 L56,70 L55,70 L55,69 L54,69 L54,68 L53,68 L53,66 L51,66 L51,65 L50,65 L50,64 L49,64 L49,63 L47,63 L47,62 L45,62 L45,61 L44,61 L44,63 L40,63 L40,62 L39,62 L39,61 L43,61 L43,60 L40,60 L40,59 L37,59 L37,65 L36,65 L36,66 L35,66 L35,64 L36,64 L36,21 L37,21 L37,22 L40,22 L40,23 L45,23 L45,25 L47,25 L47,26 L48,26 L48,27 L50,27 L50,28 L51,28 L51,29 L52,29 L52,30 L53,30 L53,31 L54,31 L54,33 L55,33 L55,32 L69,32 L69,34 L55,34 L55,35 L56,35 L56,37 L57,37 L57,42 L69,42 L69,44 L57,44 L57,46 L58,46 L58,51 L69,51 L69,54 L58,54 L58,59 L59,59 L59,61 L69,61 L69,63 L59,63 L59,73 L60,73 L60,81 L59,81 L59,85 L58,85 L58,89 L57,89 L57,92 L56,92 L56,94 L55,94 L55,97 L54,97 L54,99 L53,99 L53,102 L54,102 L54,103 L55,103 L55,104 L56,104 L56,105 L61,105 L61,106 L62,106 L62,107 L60,107 L60,106 L57,106 L57,107 L56,107 L56,108 L54,108 L54,109 L53,109 L53,107 L50,107 L50,106 L45,106 L45,105 L34,105 L34,104 L31,104 L31,144 L29,144 L29,104 L25,104 L25,105 L15,105 L15,106 L9,106 L9,107 L10,107 L10,114 L9,114 L9,108 L8,108 L8,107 L7,107 L7,106 L4,106 L4,107 L2,107 L2,108 L0,108 L0,107 L1,107 L1,106 L2,106 L2,105 L4,105 L4,103 L6,103 L6,102 L7,102 L7,99 L6,99 L6,97 L5,97 L5,94 L4,94 L4,91 L3,91 L3,89 L2,89 L2,85 L1,85 L1,81 L0,81 L0,75 L1,75 L1,62 L2,62 L2,48 L3,48 L3,39 L4,39 L4,35 L5,35 L5,33 L6,33 L6,32 L7,32 L7,31 L8,31 L8,29 L9,29 L9,28 L11,28 L11,27 L12,27 L12,26 L13,26 L13,23 L21,23 L21,22 L25,22 L25,21 L27,21 L27,20 L28,20 L28,19 L29,19 L29,5 L30,5Z M0,23 L2,23 L2,25 L0,25Z M5,23 L10,23 L10,25 L5,25Z M49,23 L53,23 L53,25 L49,25Z M57,23 L69,23 L69,25 L57,25Z M0,32 L4,32 L4,34 L0,34Z M10,32 L26,32 L26,25 L19,25 L19,26 L17,26 L17,27 L15,27 L15,28 L13,28 L13,29 L12,29 L12,30 L11,30 L11,31 L10,31Z M38,32 L43,32 L43,34 L38,34Z M47,32 L51,32 L51,31 L50,31 L50,30 L49,30 L49,29 L48,29 L48,28 L46,28 L46,27 L44,27 L44,26 L42,26 L42,25 L39,25 L39,24 L37,24 L37,42 L42,42 L42,44 L37,44 L37,57 L41,57 L41,58 L44,58 L44,59 L46,59 L46,60 L48,60 L48,61 L53,61 L53,63 L52,63 L52,64 L53,64 L53,65 L54,65 L54,66 L55,66 L55,67 L56,67 L56,68 L57,68 L57,63 L56,63 L56,47 L55,47 L55,38 L54,38 L54,35 L53,35 L53,34 L47,34Z M0,42 L1,42 L1,44 L0,44Z M5,42 L26,42 L26,34 L7,34 L7,36 L6,36 L6,40 L5,40Z M46,42 L51,42 L51,44 L46,44Z M0,51 L1,51 L1,53 L0,53Z M5,51 L9,51 L9,54 L5,54Z M13,51 L26,51 L26,44 L5,44 L5,50 L4,50 L4,61 L7,61 L7,63 L3,63 L3,68 L4,68 L4,67 L5,67 L5,66 L6,66 L6,65 L7,65 L7,64 L8,64 L8,63 L9,63 L9,62 L10,62 L10,61 L12,61 L12,60 L14,60 L14,59 L16,59 L16,58 L19,58 L19,57 L23,57 L23,56 L26,56 L26,54 L14,54 L14,53 L13,53Z M41,51 L45,51 L45,54 L41,54 L41,53 L40,53 L40,52 L41,52Z M49,51 L53,51 L53,54 L49,54 L49,53 L48,53 L48,52 L49,52Z M17,61 L26,61 L26,58 L25,58 L25,59 L21,59 L21,60 L17,60Z M27,64 L28,64 L28,65 L29,65 L29,66 L30,66 L30,67 L33,67 L33,66 L35,66 L35,67 L34,67 L34,68 L31,68 L31,72 L29,72 L29,67 L28,67 L28,66 L27,66Z M29,77 L31,77 L31,88 L29,88Z M62,107 L63,107 L63,109 L62,109Z M52,109 L53,109 L53,113 L52,113Z M63,109 L64,109 L64,113 L63,113Z M0,113 L1,113 L1,114 L2,114 L2,115 L3,115 L3,116 L6,116 L6,115 L8,115 L8,114 L9,114 L9,116 L7,116 L7,117 L4,117 L4,154 L5,154 L5,189 L9,189 L9,191 L5,191 L5,196 L6,196 L6,248 L7,248 L7,295 L8,295 L8,340 L9,340 L9,373 L12,373 L12,374 L13,374 L13,375 L11,375 L11,374 L8,374 L8,375 L5,375 L5,374 L6,374 L6,373 L7,373 L7,343 L6,343 L6,298 L5,298 L5,250 L4,250 L4,202 L3,202 L3,157 L2,157 L2,116 L1,116 L1,115 L0,115Z M53,113 L54,113 L54,114 L55,114 L55,115 L57,115 L57,116 L60,116 L60,115 L61,115 L61,114 L62,114 L62,113 L63,113 L63,115 L62,115 L62,116 L61,116 L61,117 L58,117 L58,142 L57,142 L57,176 L56,176 L56,189 L58,189 L58,191 L56,191 L56,208 L55,208 L55,209 L56,209 L56,210 L55,210 L55,246 L54,246 L54,277 L53,277 L53,313 L52,313 L52,350 L51,350 L51,373 L54,373 L54,374 L55,374 L55,375 L56,375 L56,377 L55,377 L55,376 L54,376 L54,375 L52,375 L52,374 L50,374 L50,375 L48,375 L48,376 L47,376 L47,377 L46,377 L46,375 L47,375 L47,374 L49,374 L49,347 L50,347 L50,312 L51,312 L51,311 L50,311 L50,310 L51,310 L51,276 L52,276 L52,243 L53,243 L53,207 L54,207 L54,191 L53,191 L53,189 L54,189 L54,173 L55,173 L55,139 L56,139 L56,116 L54,116 L54,115 L53,115Z M29,149 L31,149 L31,161 L29,161Z M29,165 L31,165 L31,184 L32,184 L32,185 L35,185 L35,186 L36,186 L36,187 L34,187 L34,186 L29,186 L29,187 L28,187 L28,188 L27,188 L27,193 L26,193 L26,191 L13,191 L13,189 L26,189 L26,187 L27,187 L27,186 L28,186 L28,185 L29,185Z M36,187 L37,187 L37,189 L40,189 L40,191 L37,191 L37,194 L36,194 L36,195 L35,195 L35,196 L31,196 L31,216 L29,216 L29,195 L27,195 L27,193 L28,193 L28,194 L29,194 L29,195 L34,195 L34,194 L35,194 L35,193 L36,193Z M44,189 L49,189 L49,191 L44,191Z M29,221 L31,221 L31,233 L29,233Z M29,237 L30,237 L30,238 L31,238 L31,250 L30,250 L30,251 L31,251 L31,252 L30,252 L30,256 L31,256 L31,257 L30,257 L30,288 L28,288 L28,249 L29,249 L29,248 L28,248 L28,244 L29,244Z M28,293 L30,293 L30,305 L28,305Z M29,309 L30,309 L30,360 L28,360 L28,310 L29,310Z M28,365 L30,365 L30,377 L46,377 L46,381 L47,381 L47,382 L48,382 L48,383 L50,383 L50,384 L53,384 L53,383 L55,383 L55,381 L56,381 L56,377 L57,377 L57,382 L56,382 L56,383 L55,383 L55,384 L54,384 L54,385 L48,385 L48,384 L47,384 L47,415 L46,415 L46,447 L45,447 L45,480 L44,480 L44,514 L43,514 L43,546 L42,546 L42,579 L41,579 L41,580 L42,580 L42,581 L41,581 L41,619 L40,619 L40,654 L39,654 L39,681 L38,681 L38,684 L37,684 L37,686 L36,686 L36,687 L35,687 L35,692 L34,692 L34,693 L33,693 L33,691 L34,691 L34,687 L33,687 L33,686 L32,686 L32,685 L31,685 L31,684 L28,684 L28,685 L26,685 L26,686 L25,686 L25,688 L24,688 L24,691 L23,691 L23,688 L21,688 L21,687 L20,687 L20,686 L19,686 L19,684 L18,684 L18,682 L17,682 L17,652 L16,652 L16,607 L15,607 L15,561 L14,561 L14,520 L13,520 L13,478 L12,478 L12,432 L11,432 L11,431 L12,431 L12,430 L11,430 L11,387 L10,387 L10,386 L11,386 L11,385 L8,385 L8,384 L6,384 L6,383 L5,383 L5,382 L4,382 L4,381 L3,381 L3,377 L4,377 L4,375 L5,375 L5,377 L4,377 L4,381 L5,381 L5,382 L6,382 L6,383 L12,383 L12,382 L13,382 L13,381 L14,381 L14,377 L13,377 L13,375 L14,375 L14,376 L15,376 L15,377 L28,377Z M28,382 L30,382 L30,432 L29,432 L29,433 L28,433Z M44,412 L45,412 L45,379 L15,379 L15,381 L14,381 L14,383 L13,383 L13,425 L14,425 L14,472 L15,472 L15,515 L16,515 L16,559 L17,559 L17,604 L18,604 L18,647 L19,647 L19,648 L18,648 L18,649 L19,649 L19,680 L20,680 L20,683 L21,683 L21,685 L22,685 L22,686 L24,686 L24,685 L25,685 L25,684 L27,684 L27,598 L29,598 L29,683 L32,683 L32,684 L33,684 L33,685 L35,685 L35,684 L36,684 L36,680 L37,680 L37,649 L38,649 L38,617 L39,617 L39,581 L40,581 L40,543 L41,543 L41,512 L42,512 L42,478 L43,478 L43,446 L44,446 L44,445 L43,445 L43,444 L44,444Z M28,437 L30,437 L30,449 L28,449Z M28,453 L29,453 L29,454 L30,454 L30,504 L28,504Z M28,509 L30,509 L30,520 L29,520 L29,521 L28,521 L28,518 L27,518 L27,517 L28,517 L28,515 L27,515 L27,513 L28,513Z M28,525 L29,525 L29,526 L30,526 L30,527 L29,527 L29,528 L30,528 L30,529 L29,529 L29,530 L30,530 L30,531 L29,531 L29,532 L30,532 L30,533 L29,533 L29,534 L30,534 L30,535 L29,535 L29,577 L28,577 L28,576 L27,576 L27,526 L28,526Z M28,581 L29,581 L29,593 L27,593 L27,582 L28,582Z M24,691 L25,691 L25,692 L26,692 L26,693 L28,693 L28,694 L31,694 L31,693 L33,693 L33,694 L32,694 L32,695 L29,695 L29,698 L27,698 L27,694 L25,694 L25,693 L24,693Z M27,700 L29,700 L29,703 L27,703Z M27,705 L29,705 L29,715 L27,715Z" /></g></svg>