<?xml version="1.0" encoding="UTF-8"?>
<svg xmlns="http://www.w3.org/2000/svg" width="16.81795mm" height="159.98074mm" viewBox="0 0 16.81795 159.98074">
<title>Avenir Standard Right Size 2 - Lateral</title>
<desc>Stem only. Green outline and transparent interior/background. Units follow the source ruler; 1 SVG unit = 1 mm. Raster-derived trace, not manufacturer CAD.</desc>
<metadata>{&quot;implant&quot;: &quot;Avenir Muller Stem&quot;, &quot;variant&quot;: &quot;Standard&quot;, &quot;side_as_printed&quot;: &quot;Right&quot;, &quot;size&quot;: 2, &quot;view&quot;: &quot;Lateral&quot;, &quot;reference_number&quot;: &quot;01.06010.002&quot;, &quot;source_pdf&quot;: &quot;Avenir stem Templating in Keynote.pdf&quot;, &quot;source_page&quot;: 2, &quot;units&quot;: &quot;mm&quot;, &quot;svg_user_unit_mm&quot;: 1, &quot;contour_bounds_mm&quot;: {&quot;width&quot;: 14.81795, &quot;height&quot;: 157.98074}, &quot;canvas_mm&quot;: {&quot;width&quot;: 16.81795, &quot;height&quot;: 159.98074}, &quot;transparent_padding_mm&quot;: 1, &quot;stroke_width_mm&quot;: 0.18, &quot;calibration&quot;: {&quot;source_page&quot;: 2, &quot;horizontal_ticks_mm&quot;: [50, 100, 150], &quot;horizontal_ticks_source_px&quot;: [615.0, 1205.0, 1796.0], &quot;vertical_ticks_mm&quot;: [0, 50, 100, 150], &quot;vertical_ticks_source_px&quot;: [368.0, 952.0, 1531.0, 2113.0], &quot;px_per_mm_x&quot;: 11.81, &quot;px_per_mm_y&quot;: 11.628, &quot;maximum_ruler_linear_fit_residual_mm&quot;: 0.14619883040936063, &quot;source_printed_magnification&quot;: &quot;1.15:1&quot;, &quot;conversion&quot;: &quot;Source ruler labels define mm directly. No second 1.15 multiplier. Separate linear X and Y calibration.&quot;}, &quot;method&quot;: &quot;Guided contour tracing of supplied raster, not manufacturer CAD. Measurement axes, circles, rulers and text removed. Lateral taper interface retained.&quot;, &quot;status&quot;: &quot;Calibrated to source ruler; verify source/image calibration before clinical use.&quot;}</metadata>
<g id="stem" fill="none" stroke="#009900" stroke-width="0.18" stroke-linecap="round" stroke-linejoin="round">
<path id="outline" d="M8.36664,1.00000 L8.19729,1.34400 L7.18120,1.34400 L6.92718,1.51600 L6.41914,1.51600 L5.99577,1.68799 L5.65707,1.68799 L5.48772,1.85999 L5.06435,1.85999 L4.89500,2.03199 L4.72566,2.03199 L4.47163,2.20399 L4.21761,2.46199 L3.79424,2.63399 L1.84674,5.29997 L1.76207,7.19195 L1.67739,7.27795 L1.67739,8.48194 L1.59272,8.56794 L1.59272,9.77193 L1.50804,9.85793 L1.50804,11.06192 L1.42337,11.14792 L1.33870,13.46990 L1.42337,13.55590 L1.42337,14.32989 L1.50804,14.41589 L1.59272,15.61988 L1.76207,15.79188 L1.76207,16.04988 L1.93141,16.39388 L2.18544,16.65187 L2.18544,16.99587 L2.10076,17.08187 L2.10076,17.42587 L1.93141,17.94186 L1.59272,20.52184 L1.50804,20.60784 L1.50804,20.95184 L1.42337,21.03784 L1.33870,21.81183 L1.25402,21.89783 L1.16935,22.67183 L1.00000,23.18782 L1.00000,25.68180 L1.08467,25.76780 L1.00000,26.02580 L1.42337,27.22979 L1.67739,28.34778 L1.76207,28.51978 L2.01609,28.51978 L2.27011,28.77778 L2.27011,29.89577 L2.10076,30.32577 L2.10076,31.27176 L2.27011,31.78775 L2.27011,32.47575 L2.69348,32.99174 L2.60881,34.45373 L2.35478,35.05573 L2.35478,35.65772 L2.18544,36.08772 L2.35478,37.54971 L2.43946,37.80771 L2.69348,38.06570 L2.27011,41.59168 L2.35478,41.84967 L3.03218,42.53767 L2.94750,43.39766 L2.86283,43.48366 L2.86283,44.94565 L2.69348,45.37564 L2.60881,46.57964 L3.20152,47.09563 L2.86283,49.58961 L2.94750,49.67561 L3.03218,50.87960 L3.20152,51.05160 L3.28620,51.48160 L3.11685,51.65359 L3.20152,52.16959 L3.03218,52.34159 L3.03218,53.45958 L2.86283,53.63158 L2.77815,54.57757 L3.28620,55.17957 L3.28620,55.60956 L3.11685,56.12556 L3.11685,57.15755 L3.20152,57.24355 L3.28620,58.44754 L3.45555,58.61954 L3.45555,61.97351 L3.54022,61.97351 L3.70957,62.23151 L3.62489,63.00550 L3.54022,63.09150 L3.54022,64.46749 L3.45555,64.55349 L3.45555,64.89749 L3.87892,65.32749 L3.79424,66.10148 L3.62489,66.44548 L3.62489,67.64947 L4.04826,68.07946 L4.04826,68.25146 L3.87892,68.42346 L3.62489,69.88545 L3.70957,69.97145 L3.70957,70.65944 L4.13294,71.17544 L3.96359,71.51944 L3.96359,72.29343 L4.04826,72.46543 L3.87892,72.80943 L3.87892,74.35741 L3.79424,74.44341 L3.70957,75.13141 L3.79424,75.21741 L3.87892,75.99140 L4.04826,76.42140 L4.04826,78.14138 L4.13294,78.22738 L4.13294,79.86137 L4.21761,79.94737 L4.13294,80.11937 L4.13294,80.46336 L4.21761,80.54936 L4.21761,84.41933 L4.30229,84.50533 L4.21761,84.59133 L4.21761,87.42931 L4.30229,87.51531 L4.21761,87.68731 L4.21761,89.92329 L4.30229,90.00929 L4.21761,90.18129 L4.21761,91.04128 L4.30229,91.12728 L4.30229,92.33127 L4.38696,92.41727 L4.38696,100.50120 L4.30229,100.58720 L4.38696,102.73719 L4.30229,102.82319 L4.30229,103.51118 L4.38696,103.59718 L4.47163,111.07912 L4.55631,111.16512 L4.55631,118.64706 L4.47163,118.81906 L4.55631,118.90506 L4.55631,120.62504 L4.64098,120.71104 L4.55631,120.88304 L4.55631,122.68903 L4.64098,122.77503 L4.64098,125.26901 L4.72566,125.35501 L4.72566,133.00894 L4.81033,133.09494 L4.81033,134.55693 L4.89500,134.64293 L4.89500,136.87891 L5.06435,137.30891 L5.06435,138.94290 L5.14903,139.02890 L5.14903,139.71689 L5.23370,139.80289 L5.23370,141.17888 L5.31837,141.26488 L5.40305,143.32886 L5.48772,143.41486 L5.48772,144.18885 L5.57240,144.27485 L5.65707,147.80083 L5.74174,147.88682 L5.74174,149.09082 L5.82642,149.17681 L5.82642,149.60681 L5.74174,149.77881 L5.91109,150.29481 L5.91109,151.58480 L5.99577,151.67079 L6.08044,153.64878 L6.16511,153.73478 L6.16511,155.02477 L6.92718,157.34675 L7.26588,157.86275 L7.77392,158.29274 L8.45131,158.63674 L9.46740,158.72274 L9.55207,158.98074 L9.63675,158.98074 L9.89077,158.63674 L10.65284,158.63674 L10.99153,158.46474 L11.41490,158.20674 L12.17697,157.51875 L12.85436,155.02477 L12.85436,153.47678 L13.02371,152.96078 L13.02371,150.20881 L13.10838,150.12281 L13.27773,147.62883 L13.36240,147.54283 L13.36240,146.76883 L13.27773,146.59684 L13.36240,146.51084 L13.36240,145.65084 L13.44708,145.56484 L13.44708,144.01686 L13.53175,143.93086 L13.53175,142.72687 L13.61643,142.64087 L13.61643,141.43688 L13.70110,141.35088 L13.70110,139.63089 L13.78577,139.54489 L13.78577,137.99690 L13.87045,137.91090 L13.87045,135.67492 L13.95512,135.58892 L13.95512,134.81493 L14.03980,134.72893 L14.03980,133.00894 L14.12447,132.92294 L14.12447,131.46096 L14.03980,131.37496 L14.03980,129.82697 L14.12447,129.74097 L14.12447,127.76299 L14.03980,127.59099 L14.12447,127.50499 L14.12447,126.38700 L14.03980,126.30100 L13.95512,121.31304 L13.87045,121.22704 L13.87045,116.92707 L13.95512,116.84107 L13.95512,115.03509 L13.87045,114.94909 L13.87045,113.83110 L13.95512,113.74510 L13.87045,113.57310 L13.87045,109.44513 L13.78577,109.35913 L13.87045,108.06914 L13.78577,107.98314 L13.78577,106.86515 L13.70110,106.77915 L13.78577,106.69315 L13.78577,104.62917 L13.70110,104.54317 L13.78577,94.30925 L13.70110,94.22325 L13.70110,91.38528 L13.61643,91.29928 L13.70110,90.09529 L13.61643,90.00929 L13.61643,87.60131 L13.53175,87.51531 L13.53175,86.22532 L13.61643,86.13932 L13.61643,85.62332 L13.70110,85.53732 L13.70110,84.93533 L13.61643,84.84933 L13.70110,84.76333 L13.70110,81.40936 L13.78577,81.32336 L13.78577,79.17337 L13.70110,79.08738 L13.78577,79.00138 L13.78577,76.59340 L13.70110,76.50740 L13.78577,74.87341 L13.70110,74.78741 L13.61643,73.58342 L13.36240,73.23942 L13.44708,73.15342 L13.44708,71.51944 L13.19306,71.17544 L13.61643,70.74544 L13.61643,70.22945 L13.70110,70.14345 L13.53175,67.99346 L13.95512,67.56347 L13.95512,67.30547 L14.03980,67.21947 L13.95512,67.13347 L13.87045,66.10148 L13.70110,65.92948 L13.70110,65.06949 L13.78577,64.89749 L14.12447,64.63949 L14.12447,64.29549 L14.03980,64.20949 L13.95512,62.66151 L13.78577,62.05951 L13.87045,61.88751 L13.87045,58.96354 L13.61643,58.53354 L13.95512,58.18954 L13.95512,57.58755 L14.03980,57.50155 L13.95512,55.86756 L13.70110,55.09357 L14.37849,54.40557 L14.29382,53.71758 L14.20914,53.63158 L14.12447,52.34159 L14.03980,52.25559 L14.03980,51.48160 L13.87045,51.13760 L14.20914,50.70760 L14.29382,49.50361 L14.37849,49.41761 L14.29382,47.26763 L14.12447,47.00963 L14.46317,46.66563 L14.71719,46.66563 L14.80186,46.57964 L14.63251,45.28965 L14.54784,45.20365 L14.54784,44.77365 L14.46317,44.68765 L14.46317,44.25765 L14.29382,43.82766 L14.29382,43.13966 L14.12447,42.88166 L14.12447,42.36567 L14.71719,41.67767 L14.63251,40.47368 L14.46317,40.30169 L14.46317,39.69969 L14.29382,39.26969 L14.37849,38.75370 L14.29382,38.66770 L14.29382,38.23770 L14.12447,37.97970 L14.63251,37.46371 L14.80186,36.86171 L14.80186,36.51772 L14.88654,36.43172 L14.80186,35.39972 L14.71719,35.31373 L14.71719,34.62573 L14.63251,34.53973 L14.63251,33.93774 L14.46317,33.67974 L14.54784,33.59374 L14.46317,33.50774 L14.46317,33.07774 L14.80186,32.73375 L15.22523,31.18576 L15.05588,30.15377 L14.88654,29.98177 L14.88654,29.29377 L14.80186,29.20777 L14.71719,28.34778 L14.80186,28.26178 L15.05588,28.26178 L15.14056,28.34778 L15.22523,28.17578 L15.64860,26.36980 L15.81795,26.02580 L15.81795,24.64981 L15.73328,24.56381 L15.64860,22.41383 L15.56393,22.32783 L15.56393,21.81183 L15.47925,21.72583 L15.39458,20.77984 L15.30991,20.69384 L15.22523,19.23185 L15.05588,19.05986 L14.97121,17.25387 L14.80186,16.73787 L14.80186,16.47988 L15.22523,15.79188 L15.39458,13.46990 L15.47925,13.38390 L15.39458,12.26591 L15.30991,12.17991 L15.30991,11.92191 L15.14056,11.74991 L15.22523,11.57792 L15.22523,10.11593 L15.05588,9.85793 L15.05588,8.30994 L14.88654,7.70795 L14.88654,5.98796 L14.71719,5.47196 L14.80186,5.29997 L13.19306,2.80599 L12.85436,2.54799 L11.41490,1.77399 L10.73751,1.68799 L10.48349,1.51600 L9.97544,1.51600 L9.80610,1.34400 L9.72142,1.43000 L9.55207,1.34400 L8.53599,1.34400 L8.36664,1.00000 Z"/>
<path id="taper-interface" d="M1.50804,26.88579 L1.76207,26.19780 L1.76207,25.50980 L1.93141,25.25181 L1.93141,24.99381 L2.18544,24.56381 L2.69348,24.13381 L2.94750,23.96182 L3.54022,23.87582 L3.87892,23.70382 L4.55631,23.70382 L4.97968,23.44582 L5.06435,23.53182 L5.82642,23.44582 L5.99577,23.27382 L8.19729,23.27382 L8.36664,23.70382 L8.36664,23.35982 L8.45131,23.27382 L10.48349,23.27382 L10.56816,23.35982 L11.16088,23.35982 L11.24555,23.44582 L11.75360,23.44582 L11.83827,23.53182 L12.09229,23.44582 L12.43099,23.61782 L13.02371,23.61782 L13.44708,23.78982 L13.78577,23.78982 L14.54784,24.56381 L14.63251,24.82181 L14.97121,25.16581 L15.05588,25.33781 L15.05588,26.02580 L15.39458,26.88579"/>
</g>
</svg>
