<?xml version="1.0" encoding="UTF-8"?>
<svg xmlns="http://www.w3.org/2000/svg"
     width="78mm" height="60.65mm"
     viewBox="-0.5 -0.5 78 60.65">
  <title>Femoral AP Size 6 - Draft</title>
  <desc>Approximate contour. Verify orientation, geometry and scale.</desc>
  <metadata>{"component":"Femoral","view":"AP","size":6,"units":"mm","nominalContourWidth":77,"nominalContourHeight":59.65,"transparentPaddingEachSide":0.5,"sourceDimensions":{"size":6,"width":77,"length":59.65,"height":72.7},"status":"Approximate traced contour; not clinically validated","mapping":"AP: Width x Length; Lateral: Length x Height"}</metadata>
  <g id="femoral-ap-size-6"
     transform="scale(0.77 0.5965)"
     fill="none" stroke="#009900" stroke-width="0.45"
     stroke-linecap="round" stroke-linejoin="round">
    <path d="M0 88 L0 51 Q0 43 7 37
     C13 11 20 0 32 0
     C49 0 63 19 74 37
     C88 29 100 31 100 51
     L100 86
     C100 96 91 98 82 98
     C69 98 59 85 50 85
     C40 85 31 100 19 100
     C10 100 0 99 0 88 Z"/>
    <path d="M0 88 C2 70 5 48 7 37"/>
    <path d="M74 37 C82 65 93 85 100 80"/>
  </g>
</svg>